<mxfile host="65bd71144e">
    <diagram name="Page-1" id="vZ3Ax9nIEI5THfrquVo_">
        <mxGraphModel dx="2059" dy="637" grid="1" gridSize="10" guides="1" tooltips="1" connect="1" arrows="1" fold="1" page="1" pageScale="1" pageWidth="850" pageHeight="1100" math="0" shadow="0">
            <root>
                <mxCell id="0"/>
                <mxCell id="1" parent="0"/>
                <mxCell id="fCIdx-GhJk9Z0k1vzJS6-72" value="" style="rounded=0;whiteSpace=wrap;html=1;" parent="1" vertex="1">
                    <mxGeometry x="550" y="220" width="120" height="290" as="geometry"/>
                </mxCell>
                <mxCell id="fCIdx-GhJk9Z0k1vzJS6-71" value="" style="rounded=0;whiteSpace=wrap;html=1;" parent="1" vertex="1">
                    <mxGeometry x="20" y="220" width="520" height="290" as="geometry"/>
                </mxCell>
                <mxCell id="fCIdx-GhJk9Z0k1vzJS6-25" value="" style="group" parent="1" vertex="1" connectable="0">
                    <mxGeometry x="320" y="409.58" width="50" height="70" as="geometry"/>
                </mxCell>
                <mxCell id="fCIdx-GhJk9Z0k1vzJS6-3" value="" style="shape=trapezoid;perimeter=trapezoidPerimeter;whiteSpace=wrap;html=1;fixedSize=1;rotation=90;size=10;" parent="fCIdx-GhJk9Z0k1vzJS6-25" vertex="1">
                    <mxGeometry x="-10" y="20.939999999999998" width="70" height="28.12" as="geometry"/>
                </mxCell>
                <mxCell id="fCIdx-GhJk9Z0k1vzJS6-10" value="" style="rounded=0;whiteSpace=wrap;html=1;" parent="fCIdx-GhJk9Z0k1vzJS6-25" vertex="1">
                    <mxGeometry x="30" y="20.936666666666667" width="20" height="9.166666666666666" as="geometry"/>
                </mxCell>
                <mxCell id="fCIdx-GhJk9Z0k1vzJS6-11" value="" style="rounded=0;whiteSpace=wrap;html=1;" parent="fCIdx-GhJk9Z0k1vzJS6-25" vertex="1">
                    <mxGeometry x="30" y="39.89666666666665" width="20" height="9.166666666666666" as="geometry"/>
                </mxCell>
                <mxCell id="fCIdx-GhJk9Z0k1vzJS6-12" value="" style="rounded=0;whiteSpace=wrap;html=1;" parent="fCIdx-GhJk9Z0k1vzJS6-25" vertex="1">
                    <mxGeometry y="30.106666666666683" width="20" height="9.166666666666666" as="geometry"/>
                </mxCell>
                <mxCell id="fCIdx-GhJk9Z0k1vzJS6-13" value="" style="rounded=0;whiteSpace=wrap;html=1;" parent="fCIdx-GhJk9Z0k1vzJS6-25" vertex="1">
                    <mxGeometry y="11.766666666666652" width="20" height="9.166666666666666" as="geometry"/>
                </mxCell>
                <mxCell id="fCIdx-GhJk9Z0k1vzJS6-14" value="" style="rounded=0;whiteSpace=wrap;html=1;" parent="fCIdx-GhJk9Z0k1vzJS6-25" vertex="1">
                    <mxGeometry y="49.05666666666667" width="20" height="9.166666666666666" as="geometry"/>
                </mxCell>
                <mxCell id="fCIdx-GhJk9Z0k1vzJS6-26" value="" style="group" parent="1" vertex="1" connectable="0">
                    <mxGeometry x="320" y="288.34" width="50" height="70" as="geometry"/>
                </mxCell>
                <mxCell id="fCIdx-GhJk9Z0k1vzJS6-27" value="" style="shape=trapezoid;perimeter=trapezoidPerimeter;whiteSpace=wrap;html=1;fixedSize=1;rotation=90;size=10;" parent="fCIdx-GhJk9Z0k1vzJS6-26" vertex="1">
                    <mxGeometry x="-10" y="20.939999999999998" width="70" height="28.12" as="geometry"/>
                </mxCell>
                <mxCell id="fCIdx-GhJk9Z0k1vzJS6-28" value="" style="rounded=0;whiteSpace=wrap;html=1;" parent="fCIdx-GhJk9Z0k1vzJS6-26" vertex="1">
                    <mxGeometry x="30" y="20.936666666666667" width="20" height="9.166666666666666" as="geometry"/>
                </mxCell>
                <mxCell id="fCIdx-GhJk9Z0k1vzJS6-29" value="" style="rounded=0;whiteSpace=wrap;html=1;" parent="fCIdx-GhJk9Z0k1vzJS6-26" vertex="1">
                    <mxGeometry x="30" y="39.89666666666665" width="20" height="9.166666666666666" as="geometry"/>
                </mxCell>
                <mxCell id="fCIdx-GhJk9Z0k1vzJS6-30" value="" style="rounded=0;whiteSpace=wrap;html=1;" parent="fCIdx-GhJk9Z0k1vzJS6-26" vertex="1">
                    <mxGeometry y="30.106666666666683" width="20" height="9.166666666666666" as="geometry"/>
                </mxCell>
                <mxCell id="fCIdx-GhJk9Z0k1vzJS6-31" value="" style="rounded=0;whiteSpace=wrap;html=1;" parent="fCIdx-GhJk9Z0k1vzJS6-26" vertex="1">
                    <mxGeometry y="11.766666666666652" width="20" height="9.166666666666666" as="geometry"/>
                </mxCell>
                <mxCell id="fCIdx-GhJk9Z0k1vzJS6-32" value="" style="rounded=0;whiteSpace=wrap;html=1;" parent="fCIdx-GhJk9Z0k1vzJS6-26" vertex="1">
                    <mxGeometry y="49.05666666666667" width="20" height="9.166666666666666" as="geometry"/>
                </mxCell>
                <mxCell id="fCIdx-GhJk9Z0k1vzJS6-35" value="MySQL&amp;nbsp;Adapter" style="text;html=1;align=center;verticalAlign=middle;whiteSpace=wrap;rounded=0;fontSize=8;" parent="1" vertex="1">
                    <mxGeometry x="315" y="358.34" width="60" height="14.08" as="geometry"/>
                </mxCell>
                <mxCell id="fCIdx-GhJk9Z0k1vzJS6-36" value="MongoDB Adapter" style="text;html=1;align=center;verticalAlign=middle;whiteSpace=wrap;rounded=0;fontSize=8;" parent="1" vertex="1">
                    <mxGeometry x="308.71000000000004" y="479.58" width="72.58" height="14.08" as="geometry"/>
                </mxCell>
                <mxCell id="fCIdx-GhJk9Z0k1vzJS6-37" value="Business Logic" style="rounded=1;whiteSpace=wrap;html=1;" parent="1" vertex="1">
                    <mxGeometry x="30" y="350" width="110" height="71.66" as="geometry"/>
                </mxCell>
                <mxCell id="fCIdx-GhJk9Z0k1vzJS6-38" value="Must have the&lt;div&gt;same methods&lt;/div&gt;" style="shape=hexagon;perimeter=hexagonPerimeter2;whiteSpace=wrap;html=1;fixedSize=1;" parent="1" vertex="1">
                    <mxGeometry x="415" y="550" width="120" height="40" as="geometry"/>
                </mxCell>
                <mxCell id="fCIdx-GhJk9Z0k1vzJS6-39" value="" style="endArrow=none;dashed=1;html=1;dashPattern=1 3;strokeWidth=1;rounded=0;entryX=0.5;entryY=1;entryDx=0;entryDy=0;" parent="1" source="fCIdx-GhJk9Z0k1vzJS6-38" target="fCIdx-GhJk9Z0k1vzJS6-36" edge="1">
                    <mxGeometry width="50" height="50" relative="1" as="geometry">
                        <mxPoint x="50" y="550" as="sourcePoint"/>
                        <mxPoint x="100" y="500" as="targetPoint"/>
                    </mxGeometry>
                </mxCell>
                <mxCell id="fCIdx-GhJk9Z0k1vzJS6-46" value="" style="group" parent="1" vertex="1" connectable="0">
                    <mxGeometry x="560" y="230" width="100" height="270" as="geometry"/>
                </mxCell>
                <mxCell id="fCIdx-GhJk9Z0k1vzJS6-42" value="" style="rounded=0;whiteSpace=wrap;html=1;" parent="fCIdx-GhJk9Z0k1vzJS6-46" vertex="1">
                    <mxGeometry width="100" height="270" as="geometry"/>
                </mxCell>
                <mxCell id="fCIdx-GhJk9Z0k1vzJS6-1" value="MySQL" style="shape=cylinder3;whiteSpace=wrap;html=1;boundedLbl=1;backgroundOutline=1;size=15;" parent="fCIdx-GhJk9Z0k1vzJS6-46" vertex="1">
                    <mxGeometry x="20" y="53.34000000000009" width="60" height="80" as="geometry"/>
                </mxCell>
                <mxCell id="fCIdx-GhJk9Z0k1vzJS6-2" value="MongoDB" style="shape=cylinder3;whiteSpace=wrap;html=1;boundedLbl=1;backgroundOutline=1;size=15;" parent="fCIdx-GhJk9Z0k1vzJS6-46" vertex="1">
                    <mxGeometry x="20" y="174.57999999999998" width="60" height="80" as="geometry"/>
                </mxCell>
                <mxCell id="fCIdx-GhJk9Z0k1vzJS6-43" value="External Services" style="text;html=1;align=center;verticalAlign=middle;whiteSpace=wrap;rounded=0;" parent="fCIdx-GhJk9Z0k1vzJS6-46" vertex="1">
                    <mxGeometry x="20" y="10" width="60" height="30" as="geometry"/>
                </mxCell>
                <mxCell id="fCIdx-GhJk9Z0k1vzJS6-47" value="" style="group" parent="1" vertex="1" connectable="0">
                    <mxGeometry x="430" y="230.38" width="99.99999999999994" height="270" as="geometry"/>
                </mxCell>
                <mxCell id="fCIdx-GhJk9Z0k1vzJS6-44" value="" style="rounded=0;whiteSpace=wrap;html=1;" parent="fCIdx-GhJk9Z0k1vzJS6-47" vertex="1">
                    <mxGeometry width="100" height="270" as="geometry"/>
                </mxCell>
                <mxCell id="fCIdx-GhJk9Z0k1vzJS6-19" value="" style="sketch=0;outlineConnect=0;fontColor=#232F3E;gradientColor=none;fillColor=#232F3D;strokeColor=none;dashed=0;verticalLabelPosition=bottom;verticalAlign=top;align=center;html=1;fontSize=12;fontStyle=0;aspect=fixed;pointerEvents=1;shape=mxgraph.aws4.gear;" parent="fCIdx-GhJk9Z0k1vzJS6-47" vertex="1">
                    <mxGeometry x="27.420000000000016" y="70.38" width="45.16" height="45.16" as="geometry"/>
                </mxCell>
                <mxCell id="fCIdx-GhJk9Z0k1vzJS6-21" value="" style="sketch=0;outlineConnect=0;fontColor=#232F3E;gradientColor=none;fillColor=#232F3D;strokeColor=none;dashed=0;verticalLabelPosition=bottom;verticalAlign=top;align=center;html=1;fontSize=12;fontStyle=0;aspect=fixed;pointerEvents=1;shape=mxgraph.aws4.gear;" parent="fCIdx-GhJk9Z0k1vzJS6-47" vertex="1">
                    <mxGeometry x="27.420000000000016" y="191.62" width="45.16" height="45.16" as="geometry"/>
                </mxCell>
                <mxCell id="fCIdx-GhJk9Z0k1vzJS6-23" value="MySQL Driver" style="text;html=1;align=center;verticalAlign=middle;whiteSpace=wrap;rounded=0;fontSize=8;" parent="fCIdx-GhJk9Z0k1vzJS6-47" vertex="1">
                    <mxGeometry x="20" y="115.54000000000002" width="60" height="14.08" as="geometry"/>
                </mxCell>
                <mxCell id="fCIdx-GhJk9Z0k1vzJS6-24" value="MongoDB Driver" style="text;html=1;align=center;verticalAlign=middle;whiteSpace=wrap;rounded=0;fontSize=8;" parent="fCIdx-GhJk9Z0k1vzJS6-47" vertex="1">
                    <mxGeometry x="18.710000000000036" y="237.73999999999995" width="62.58" height="14.08" as="geometry"/>
                </mxCell>
                <mxCell id="fCIdx-GhJk9Z0k1vzJS6-45" value="3rd Party&lt;div&gt;Librairies&lt;/div&gt;" style="text;html=1;align=center;verticalAlign=middle;whiteSpace=wrap;rounded=0;" parent="fCIdx-GhJk9Z0k1vzJS6-47" vertex="1">
                    <mxGeometry x="20" y="9.620000000000005" width="60" height="30" as="geometry"/>
                </mxCell>
                <mxCell id="fCIdx-GhJk9Z0k1vzJS6-20" value="" style="endArrow=classic;startArrow=classic;html=1;rounded=0;" parent="1" source="fCIdx-GhJk9Z0k1vzJS6-19" target="fCIdx-GhJk9Z0k1vzJS6-1" edge="1">
                    <mxGeometry width="50" height="50" relative="1" as="geometry">
                        <mxPoint x="460" y="460" as="sourcePoint"/>
                        <mxPoint x="510" y="410" as="targetPoint"/>
                    </mxGeometry>
                </mxCell>
                <mxCell id="fCIdx-GhJk9Z0k1vzJS6-22" value="" style="endArrow=classic;startArrow=classic;html=1;rounded=0;" parent="1" source="fCIdx-GhJk9Z0k1vzJS6-21" target="fCIdx-GhJk9Z0k1vzJS6-2" edge="1">
                    <mxGeometry width="50" height="50" relative="1" as="geometry">
                        <mxPoint x="495" y="333" as="sourcePoint"/>
                        <mxPoint x="570" y="333" as="targetPoint"/>
                    </mxGeometry>
                </mxCell>
                <mxCell id="fCIdx-GhJk9Z0k1vzJS6-34" value="" style="endArrow=classic;startArrow=classic;html=1;rounded=0;" parent="1" source="fCIdx-GhJk9Z0k1vzJS6-3" target="fCIdx-GhJk9Z0k1vzJS6-21" edge="1">
                    <mxGeometry width="50" height="50" relative="1" as="geometry">
                        <mxPoint x="369" y="333" as="sourcePoint"/>
                        <mxPoint x="450" y="333" as="targetPoint"/>
                    </mxGeometry>
                </mxCell>
                <mxCell id="fCIdx-GhJk9Z0k1vzJS6-33" value="" style="endArrow=classic;startArrow=classic;html=1;rounded=0;" parent="1" source="fCIdx-GhJk9Z0k1vzJS6-27" target="fCIdx-GhJk9Z0k1vzJS6-19" edge="1">
                    <mxGeometry width="50" height="50" relative="1" as="geometry">
                        <mxPoint x="370" y="410" as="sourcePoint"/>
                        <mxPoint x="420" y="360" as="targetPoint"/>
                    </mxGeometry>
                </mxCell>
                <mxCell id="fCIdx-GhJk9Z0k1vzJS6-40" value="" style="endArrow=none;dashed=1;html=1;dashPattern=1 3;strokeWidth=1;rounded=0;entryX=0.5;entryY=1;entryDx=0;entryDy=0;" parent="1" source="fCIdx-GhJk9Z0k1vzJS6-38" target="fCIdx-GhJk9Z0k1vzJS6-35" edge="1">
                    <mxGeometry width="50" height="50" relative="1" as="geometry">
                        <mxPoint x="248" y="530" as="sourcePoint"/>
                        <mxPoint x="341" y="465" as="targetPoint"/>
                    </mxGeometry>
                </mxCell>
                <mxCell id="fCIdx-GhJk9Z0k1vzJS6-53" value="" style="group" parent="1" vertex="1" connectable="0">
                    <mxGeometry x="170" y="409.99999999999994" width="90" height="94.07999999999998" as="geometry"/>
                </mxCell>
                <mxCell id="fCIdx-GhJk9Z0k1vzJS6-51" value="" style="shape=image;verticalLabelPosition=bottom;labelBackgroundColor=default;verticalAlign=top;aspect=fixed;imageAspect=0;image=data:image/png,iVBORw0KGgoAAAANSUhEUgAAAmQAAAJkCAYAAAC/ET28AAAAAXNSR0IArs4c6QAAAARnQU1BAACxjwv8YQUAAAAJcEhZcwAALiMAAC4jAXilP3YAAAbXaVRYdFhNTDpjb20uYWRvYmUueG1wAAAAAAA8P3hwYWNrZXQgYmVnaW49Iu+7vyIgaWQ9Ilc1TTBNcENlaGlIenJlU3pOVGN6a2M5ZCI/Pg0KPHg6eG1wbWV0YSB4bWxuczp4PSJhZG9iZTpuczptZXRhLyI+DQogIDxyZGY6UkRGIHhtbG5zOnJkZj0iaHR0cDovL3d3dy53My5vcmcvMTk5OS8wMi8yMi1yZGYtc3ludGF4LW5zIyI+DQogICAgPHJkZjpEZXNjcmlwdGlvbiByZGY6YWJvdXQ9IiIgeG1sbnM6cGhvdG9zaG9wPSJodHRwOi8vbnMuYWRvYmUuY29tL3Bob3Rvc2hvcC8xLjAvIiB4bWxuczpJcHRjNHhtcENvcmU9Imh0dHA6Ly9pcHRjLm9yZy9zdGQvSXB0YzR4bXBDb3JlLzEuMC94bWxucy8iIHhtbG5zOkdldHR5SW1hZ2VzR0lGVD0iaHR0cDovL3htcC5nZXR0eWltYWdlcy5jb20vZ2lmdC8xLjAvIiB4bWxuczpkYz0iaHR0cDovL3B1cmwub3JnL2RjL2VsZW1lbnRzLzEuMS8iIHhtbG5zOnBsdXM9Imh0dHA6Ly9ucy51c2VwbHVzLm9yZy9sZGYveG1wLzEuMC8iIHhtbG5zOmlwdGNFeHQ9Imh0dHA6Ly9pcHRjLm9yZy9zdGQvSXB0YzR4bXBFeHQvMjAwOC0wMi0yOS8iIHhtbG5zOnhtcFJpZ2h0cz0iaHR0cDovL25zLmFkb2JlLmNvbS94YXAvMS4wL3JpZ2h0cy8iIHBob3Rvc2hvcDpDcmVkaXQ9IkdldHR5IEltYWdlcyIgR2V0dHlJbWFnZXNHSUZUOkFzc2V0SUQ9IjE0MDc5MjE2OTkiIHhtcFJpZ2h0czpXZWJTdGF0ZW1lbnQ9Imh0dHBzOi8vd3d3LmlzdG9ja3Bob3RvLmNvbS9sZWdhbC9saWNlbnNlLWFncmVlbWVudD91dG1fbWVkaXVtPW9yZ2FuaWMmYW1wO3V0bV9zb3VyY2U9Z29vZ2xlJmFtcDt1dG1fY2FtcGFpZ249aXB0Y3VybCIgcGx1czpEYXRhTWluaW5nPSJodHRwOi8vbnMudXNlcGx1cy5vcmcvbGRmL3ZvY2FiL0RNSS1QUk9ISUJJVEVELUVYQ0VQVFNFQVJDSEVOR0lORUlOREVYSU5HIj4NCiAgICAgIDxkYzpjcmVhdG9yPg0KICAgICAgICA8cmRmOlNlcT4NCiAgICAgICAgICA8cmRmOmxpPkpEYXduSW5rPC9yZGY6bGk+DQogICAgICAgIDwvcmRmOlNlcT4NCiAgICAgIDwvZGM6Y3JlYXRvcj4NCiAgICAgIDxkYzpkZXNjcmlwdGlvbj4NCiAgICAgICAgPHJkZjpBbHQ+DQogICAgICAgICAgPHJkZjpsaSB4bWw6bGFuZz0ieC1kZWZhdWx0Ij5WZWN0b3IgaWxsdXN0cmF0aW9uIG9mIGEgSHVtYW4gcmVzb3VyY2VzIGljb24gd2l0aCBubyB3aGl0ZSBib3ggYmVsb3cuIEZ1bGx5IGVkaXRhYmxlIHN0cm9rZSBvdXRsaW5lIGZvciBlYXN5IGVkaXRpbmcuIFNpbXBsZSBpY29uIHRoYXQgaW5jbHVkZXMgdmVjdG9yIGVwcyBhbmQgaGlnaCByZXNvbHV0aW9uIGpwZyBpbiBkb3dubG9hZC48L3JkZjpsaT4NCiAgICAgICAgPC9yZGY6QWx0Pg0KICAgICAgPC9kYzpkZXNjcmlwdGlvbj4NCiAgICAgIDxwbHVzOkxpY2Vuc29yPg0KICAgICAgICA8cmRmOlNlcT4NCiAgICAgICAgICA8cmRmOmxpIHJkZjpwYXJzZVR5cGU9IlJlc291cmNlIj4NCiAgICAgICAgICAgIDxwbHVzOkxpY2Vuc29yVVJMPmh0dHBzOi8vd3d3LmlzdG9ja3Bob3RvLmNvbS9waG90by9saWNlbnNlLWdtMTQwNzkyMTY5OS0/dXRtX21lZGl1bT1vcmdhbmljJmFtcDt1dG1fc291cmNlPWdvb2dsZSZhbXA7dXRtX2NhbXBhaWduPWlwdGN1cmw8L3BsdXM6TGljZW5zb3JVUkw+DQogICAgICAgICAgPC9yZGY6bGk+DQogICAgICAgIDwvcmRmOlNlcT4NCiAgICAgIDwvcGx1czpMaWNlbnNvcj4NCiAgICA8L3JkZjpEZXNjcmlwdGlvbj4NCiAgPC9yZGY6UkRGPg0KPC94OnhtcG1ldGE+DQo8P3hwYWNrZXQgZW5kPSJyIj8+opbprQAAZO9JREFUeF7t3QecXFXd//Ez20uy6Z1UQgloUEAEpYgUKSEEUujSWxLpoHSQKgJC6CUiQQwp0vFRikp7/KMUASF003vbbLbP7v3P9+ycfS7D7E6S3Zk75fPmdbh37pTMzJ57z+/+zrlnDAAAAAAAAAAAAAAAAAAAAAAAAAAAAAAAAAAAAAAAAAAAAAAAAAAAAAAAAAAAAAAAAAAAAAAAAAAAAAAAAAAAAAAAAAAAAAAAAAAAAAAAAAAAAAAAAAAAAAAAAAAAAAAAAAAAAAAAAAAAAAAAAAAAAAAAAAAAAAAAAAAAAAAAAAAAAAAAAAAAAAAAAAAAAAAAAAAAAAAAAAAAAAAAAAAAAAAAAAAAAAAAAAAASHuh6BIAAHSi5599zoswKs3Nzba4dQnX1bfebmpqssX/uKZIC+2/37/Udq8x3Hq/u89/f2Nj4zfud+vaLu5+/3Pd/T379jFFRUWmb9++ZvvttzdHjD+SmCGJ+HIBIMs8OfeP3urVq1sbZNHSX6SysvIb2919WtbW1n7jPhV3f0NDQ+t6bJH169e3eZ+W9fUtAYm7HVvae/8qdXV1bd4n/sDDrfvvLygo+No2FT1OtF5SUtK6HltEwUq8+1QkPz/fLt02/3uQirLy1tuxxSr4+vNj7y/Ky29d1zL29bt27WqXbpu/SOz7iy3V9XWmvLzcFBYWmpqaGvv37tevn9lll13MjjvuaC68+CJiiE7ElwkAGWzu7DneK6+8Yt566y2zbNkym+VQoKHGVkuJbWid0tLS1tux92uphtjx3+8eo3/Lrcfep6Uac7fulv7HFBcXt3nfpqzr/cVu998OhVqaOLcU/3peXp5d+p/jX7rgTOK9RluvG3t/W6+fH1m09RoSNi2Pc2Ifm9f8f/e7+/yPURAV+xw/9z6c2MfWNNSbLl26mLKyMvu3rq6uNuFw2P5dtX1jTbXZbrvtzGGHHWbOOOOMr784NhtfIABkoFNOOcV76x//z2axlGlS8KWGU0GKGk23TdoKCPQ4J95jlAFy627p1sUFbG3dr0Zc/Pf7l7EBX+wyNuDyL8UFVBLvce7ziwIMF3C4pTJwjj8YiSfe812G0L/drYv7/H7++0OR9+h/buyyLs7r+5fhBP++At7Y5/iX8d7/15aRoF5BnTKRCvCVMdRSdU7bdVtFn1PZuIMPPtjcevttLU/GZuOLA4AMMnnyZO+pp54yffr0MY31DTaoUMPqGn/XmCogcV1Sjj+YETXYjv8+f1DjX4p/3d/l5fjX/QFRvMe49yr++0W3/fdL7GP8GazNfX2J/Tdi/z1/wOcX7/Ud/7/T1mu79YKYDF0sL/q4tu7P971mvMfEBoSxj4l9/7H3l5aX29dQHXPBq/6mqjcK1vXuN2zYYJ+nuqAMWrdu3czEiRPNdTfd+PUXR0J8YQCQAR566CHvxhtvNFVVVTYYU/dkWUmpzSKpcVTjqobRBSnudnv8GTKJfbw/gxWPPyCKxx8QxHsvsa/f3vuNd19swOm4x+p+t66lf138AWMsfX8uCGnrNVwGUdx97n5xAU9s4OOoy9H/ev51yzeGzC3962VF3+zydevivt+2HuPPoMZ7TGX1RpsBU9e2vkvVFwX/7u9eVVlp66Ieo4yZHqOuTGXQVqxYoaDMTJ06lThjE/FFAUCaO/vss70XXnjBNpQav6OGUY1fbXWNvV/b1UiqaLvLYKjbsj2u4W1LW/e7ACPR/W1lmNz9/i5Dxx+8tLXuxHu+nz/gcPzrsa8Z+3n0XfrFvo67v63Xb2vdKS38Zpewn7vK0om9vyCmCY99Hf/na+91JN795d0qbHeliuqWAjx9p3pd3e7To6dZuXKlrWeql3qeThi0PnDgQLN45XJz+OGHm2nTpn3zj4dv4EsCgDR20kkneU8++aRt5JSNUIOnDITtbmxuCQrUSCr4USOpYE2BimtAnXgBTaJteg0n3mP9jXi8+xM9vy3tPdZ/n/v323q8//1Je6/rHhu79NuUz5Dovfhf1z8oX2Kfq4DML/b+UFPb329b76Ot7Y7/fg3qV93yB576m+ox9nHhlgyo6p4eo22ui9M+rrjQXmn73e9+11xwwQVm7Nix7f/jOY4vBwDS1G7f2dlzA6hdgKWGzzV6Wtd210jqfhXdVtdSvAyVPyCIFyT4uYAu3v3a5l6/rftdieW2uYZe4j3OHxw4/se199qyua8f+5hEt93rx3ttbfP/+xLvcX6J7hf/Y9r7/mP5P6tbVz1xYr8L3VYdUkDm6oGCfX83twJGf8Cm19N7UdG66qimyVi6dKnp2bOnufTSS81PTzrx6/8QWvHFAEAamjRpkvfRe++3NoIu6HJFjZ6yZb1797ZjeDSgWsGbGkcVBW1qLBOJbYj91KC2d39sIBD7WP+/H+91/GPMHP/jEt0f7zU35353laET+/i2vj/3OH9AI7HPj/f+xT3OH9zEPlf8F11I7GPcPGzx6LH697Vsq8TWqdii+11g5eqgvhPXJb56/bqvBWMKEHWfHqO6oecpQzZo0CD7GH3f559/vjl7yuRvflgQkAFAujnvvPO8Bx980PTr0cs2eP7GUQ2dtqnRK+/axTZ4GzdutNsUmGnpMhT+gMnf0LrbrsF2t/3r4gKK2Pvcunv9ePdpqSCxrfv82nqMGnTH3Rfvfv82/2MUAMTe59bFBRNtPUYBb+x97rYker4bwxe7vb11d1v884j57/M/RmLvc+uqD+62giUVty7+ZexjVHThiII+fc+ufmm7tin47zdggK1/qmvqUtfj1q5da4O1/v3728fosS6w1UTECs7OPfdcc+rpp339Q4CADADSyQMPPOBdc801tlHTxKGukXRBlrjGU1kLNXLKSqgBFM3Qr/v1czdr1qyx6+Keo6Xb5rhtscX/+Ngiie7v3r173Ptc0fOlrW3u+RL7b4m7ytG/3V/cTPXutnsNt03fm7svtoimcJB496uMGXd4ywNzwGOP/M77y1/+Yt5//30bKOrKywWLFpkhQ4bY9VWrVtn62KNHDxvIL1++3H7/CsA+//xzG9Dp55f0fNXVTz77NGe+u03FF4KscenFl3h//etf7VmxBj/rrGzdunXRe4HO15zX0nU4bNgws99++5kzzzyzw8fUrbfe2lO9VUNWX90ydsxlolxAoW0qeZE6rkZPDaTK6NGjzYQJE8zJp57CsR1J89uHp3uvvvqq+fDDD20gpgytMmQKYFVHlRnTcVgZMwXVuq0gTY9RPdVjNMP/X156kXrqw5eBjHfNFVd6M2fOtN0jOmPWWZoaMO30sWMwgM7k5efZhkaNjGbJ/9a3vmVOO+20Lb6aTFdUanoLZRnUXVZRUmbrs+taVJ1WUf3WttqmRlvHDzroIGXWOJ4j5c4751zvz3/+s62vOgl2vxChQfzaL7RdXZ2qpwrcVH+VUVNX5uSpUzTQn3obxReBjHbHLbd6v//9780nn3xiRowYYSclVKpcjZUGO2t8A5AsVfW19qzfZa2UCdh///3N448/vkXH1l69ennqAlIjptKlqGXMjgIwV9SgqcFTqejd0/zjH//gOI7AjTnkUO+dd96xJxO6KnPx4sX2GKwATdkyBWEKytTFruOzrr4sLC4yb7/9NvU3qqWzHshQd911l224Bg8ebLsnv/rqK7vjK02+ZMmS6KOA5FCD47oLXdfM66+/bh577LGvX364CQ444ABPXT6qx8r2qmGz3ZKRAEyZXwVgjm4rECQYQ7p4/k8vhE488UT7U0pffvmlGTBggF1XEKZ6rcBMt7WfKHumCWX1uBtuuGGz95Vsxc6MjLXN1iM9jbHR2Zi6i3TW5dLmOgjYS8KjPz0CJIMyVqprGkivsVwqujJNs5P/9nePbNbxdWD/AZ4yvHpNNV6q115j2Hbz9O7bxz5m7fr1prEpbHbZZRfz4ouMv0H6ue6667yHH37YDuIPNTa1DvjXCYayY6rjOtHQcVrHaF188q/336MuR/AlICONHLG1Z7MGkSqsIEzjbJRJcDu6xiyoYWtojj8PENAZlMlS4KSrxvTbfWqElA0YNWqUeWL2rE0+vt5w3fXe/fffb5+v+qu6qxOMwlCercu19XV2W2Ek+GvymnXVGsdupK3rr7/eu+eee0xpfqENyLSf6GRF2V83PYaoO17l1ttvM+MmjM/5Ok2XJTLOQQf+xFPqW2dbGpugIEwNmbJk2tldpkxZBrfDUyjJKOp+UT3T9BIKpJTNUrZM3TWbQ4Oi9Xqquwq8/AP3ta4TDjViWj/44IOjzwLS0xVXXBHaa6+9bB1WFkwnLarfqr9u31Hd1km1jtUvvfRS9Jm5jbMsZJSDf3KQp3lsNCWABu+HIwGZAjF1G7kMmcbzaGfX9rrI/UCyqL5VVFTY8Yq6jF+TYioou+OOO8xRxxy9ycfXQQMG2nE0rh67jK9+K1CBWFmXcnvy0X/gQPOPt/4fx21khG+P2sHTPqEsmU5YFHypy1LHZ9XxspJSe+HV8K1HmDep12TIkDlOPOGnnn4TTdkwDQjVWZfrnlSWQju+Gi01aiq6X4+lUJJV1LBobIyCp/nz59sz/zFjxmxWMHbH7b/xVFcV3LmZ0FWfVbeVQdB2vb6yDQcccED0WUD622GHHVqPwwrAVLdVn0Xb7MlG5MRZWWWQIUOGuPzSy7znnnvOXko9fPhwe3WOLpsO19Xbsy+dZWnn7tWrl93xdVtBWagw8W/5AVtKQZO6zzU+RsHUj370I3PfA/dv1nH1+GOP89577z3bBa9sm04qNOZG6xrULxpDpqBswZLFHLORMTQtkQb4KwhTvXbd8bqt4EzHbO03ulDlq4ULcr5us3Mj7T14/wPe7bffbgeEagZ+ZSK+/e1v2+BMPy1jBz3XtvyostLhCsa0/MEPfkBAhqRShkxn99///vfNjjvuaMYdecRmH1P33nMvT3VZmQQ37tFlxJrqG2xdXrt+nf01gH/8658cs5Ex/vT0s94ll1xij88uA+zGQ6q+a13HbS9Sq79cMJ+ALLoE0tIffv+4N23aNDNv3jyb/VImQo3gggULzMCBA01jbZ3NhGngqHZsNWZaP+yww8y9Dz9I/Uba23XnXTxlfIcOHWrHoinjqys1dWKhEw516YSbm8yee+5pfjvjUeo0MsrWg4d6yvgqm6yLYJQpU1F3vE48FKxpgtgv5v835+s2Y8iQ1q6+/AqzduUq07dnL5PX7JmaDVW2m3JAn752qQxYZfVGU1RWan9XcP3GKrPHXnsSjCFjrFy6zPTr1dusX73G9KzoZqdyUd1WMKZGSw2WLhTQDzMDmUbH5fJuFaawtMRU1daYpsiRWT85FjYtVxErUNOJNAjIkMZ+/OMfe9pRXXHjEJQBU6pbXFZM3TvKlGkQ6ey5c9i7kTGUJVAR1XHVZVFDpXquoEzTueg2gOxFQIa0dPjhh9uBzn7uLEoNltY1BkFTXKgbUylxNVyvvv4awRgyiuqyAjJ30qH6reICMtVzFf3cDIDsRUCGtHPKKad4L774or2KMtI82StwNIYmlJ9nikqK7XiD/MICkxf9WSQ1YsogXH/99fY2kCl+fdPNnuq36rnJC9nBzVpqNn4tXZCmwf4nnXYqJxtAFiMgQ1o5//zzvTfeeMNeUabsgDIHbhJBNU7KGmibbquRUnZMkw3ecMMN5rDDx9JgIaO88847ti4r6HJdl6rjqvMq7spLrQPIbgRkSCsvvPCCbZw0kFnyQ3km5JnW0hxuMg119aaxvqFlvaHBXHjhhWbiUZMIxpBxvvjsc1vHvabmSOX2IgfkyElHXr69raLgTFMEbLXVVtFnAMhWBGRIK8qCaaC+ZuTXIH2XOVDDpPuUTVDReDGNqfnJT35iLrrkYoIxZCTNradpLlzXpKvvbhyZ6L7dd9/drgPIXgRkSBtz5871dHm/umdGjhxpf7BZwZcoILMTCEYH9Kursn///ube++8jGENGmjVrlqf67X4uyQVkWnf1XLdV70ePHh19FoBsRUCGtDFhwoSQm8lZ48I0fqahucmUdCk3G+tqTU1DvV3XcuT225kXXvoLwRgy1p///GdbxzWNi5u5XNkxjRnTutR7TaYpP2R+esrJ1HVkJNVv9WjoxEJDUXRyraLhJjr51n2uvuc6AjKkFWXGNIWFfi5GM/NrZufly5eb3r172yspP/vsM/sDy3Of/CMNFDLaihUromttU4ZMVxsDmUq/NKGeD9Vl9Wq4XhD1cug+9YQoOPvTs8+19NHnMAIypJWzzz7bBmX6KRk1WMqUKThbtWqVWblypdl3333NE7NnEYwh4y1atCi61jY1XNtss030FpB5NBZY9ViBmLJhygCrS15ZYW1X5kw9IwrKch0BGdLKuHHjQmeccYb50Y9+ZLNiCsj0m5XKlOnHwl965WWCMWSFtWvX2nnH2ivKKuhHy4FMpW7KiooKG3Bt2LDB9nQoMFOApt9rVQZY4yXHTRgfqfG5Lee/AKSvGTNmeEsWLbbjDZQlGHfkEdRXZIU777zTu+mmm0x5cUl0S3waQ3n33Xfrlyuo+8hIXcu7eMOHDzeVlZX2tq4qVmZMGbK6jdV2SpcFixaaVevWEpBFlwCAFDn11FO9l156yRQl6KQo7dbVfPjhhxynkbH69+3nadB+t27dbI+HqNtSPSCNtXU2c1ZbX2eWr16V8/WcLksASLFIkGXHziTSt2/f6BqQmcaPH2+vnFdGTFcRa92NIdNtZcsmTZoUfXRu48wLAFJs4MCBngYy54Wbo1vi+85uu2p+Po7TyGg7jtrBzjGpsWMaL6aiq+nzmj07PviDTz6mjkeQIQOAFHr8sd97+lmkcEOjyStqmWuvLtxovPw805wXMvVNYZNfXGTn3hs7dmz0WUDm+mjex6FRo0bZX6ZQVkwnIzJ6150Jxnz4IgAghaZOnmLHj6nL0v1wuK6m1MUr6srRupseYOHiRRyjkVWuu/aXnoKyy6+8grodgy8EAFJot12/52lws4qbtVzjadSNI2qsFJhpqoD3P/yAYzSQI9jZASCFtt92O09ZMffD4pqXST8vIwrElB3TlWc77bSTefb551J+jH7gvvu9d955x/z3v/81S5YssRk7f9F7dPzryD6JLjzRSYTGgGmuSE1tse2225opP5tKXLGF+OKQ1Z7545MdajHUAIkaHlf82zQwtSN0xZH4X9uti7IlHeEa+i2l57v3E68osOgIPT/e66qIW24pTTzZES5bFa+I+/u1pSby/WmmcnU/qnHT+t///nf76xP66Rj9LJimA9CAZ92vv78LyE444QRz/Y03pOQYfdVll3tvvPGGWbBggX2vbuC1xvrE+9wum4fs5v7ebXFjwbQfu+53TXGhuq06PmHSJHP+hRdQWTYRX1QOe/LJJ73X/vo3+xNFCxcuNKtXr279+Qo1DCpqQNxOGXtQFjUeHRG7w8fe7owGvyPcAcf/uf3rHf1RXH9w55b+11d3Vkd09PO7f7+t99dRLuAR/+u6ZUc//6ZMLdEeF3jEvje3nlDk8+k1ampq7HPcPuV+Ekx/H3VNagZzZcsU4Okz63F33HGHGTsuuRPCHnbwIZ5+kmzZsmV2RnW9N2Xs9HfRe/OfMPi5gK2j9QuZTfVU9VX7meqDO55pm8qGyImG6s7o0aPNKaecYsZPnEDM0Q6+nBx02WWXeS+//LJtBEryCmxjoTN011ioYVCgoYNyWxkgd4De5IapDbENpmsAnY4e8DvaILsDjMT7rP77t0R7GTD9e+3dvyk6GtC4AN2J/Q46+v26gL6tehT772+ujv59Yuvj5n7+2saG1kBLP6SspQIxzVqu19LnUwCk28qU6bb+Tb3u519+kbTj8znnnOM99dRTpndFd5vZUBH9u/r3NaZNRe9V7zP2c+sxKokyhMhssfU/lv7+Okap6LGqJ9qm47b2vfJuFbYtUdCvOq6fARs3bpy58uqriD3i4EvJIRdffLH3zDPP2EBMgZcOuAWR9ko7kzuj0U6lHUn3aceKlwHz76QdDRj8g5n9S7fe0QY1tiHZXP7PKrG3O7vBF/+2jr5+RyX7/fn/PvH+rY7Wr84S771Jos8fNp4NyNQYaekCHQVnWur5WlfXaq9evWxgpG3KzH7y2afx/9EOmDVrljdt2jTz0Ucf2ZnSayv/78ICF4y5AEwl9raKo/vS5e+D5Eh0Qqz2wQVf4gIzp9Fr6WlR3VI91xAI1fWRI0eaAw44wKSqSz5T8GXkgLtvv8N79NFH7VmKGgXtIO6gv65qg92BVNyBWQddBWP+gMx/IBZ327/zbYnY1/G/nl0Pt39A0NxN7Yl9353B/5qd9fkl9jvQ0h3otlRnvb94760z+D9fvNfu6N+vo99fe/++7utoQKL9TVloZRHUaOlkqWfPnmbnnXc2T8ye1TlfctT5557nzZw50/5bysa5iwr0feuzaH9XkCh6jPZ9r7ElA6L3pseo8fU30h39+yC9Jarfmi9P9UF1R1SXVFyQVpSX/7U2RfXIBXEKzorKSs1VV11ljv/pCZ1a1zMVX0KW+9mZZ3vvv/+++eqrr1rHh2hH0HgR7WxlFV1bdyjtQNpx/A2ia9D82+Ldv6W0g4r/Nf1CTe2/flOCGuxef0vp87X12aWjn18Hq7bo3+pol11HG8zY+hCrM15f2vs3OqK973dTxH6+jn7eWHo9N0xA++HatWtt5urss882Z0+Z3Glfyhmnne69+eabdniCgi3VW5eNE+0neh8qek86PtgxZfktWXMVbfc/XqWj9R/pLVF91/FXdcDVAxe8a6k601Tf8LWATNtVx3Sfgv/Bw4eZd99910yYMMFMf+S3yTkIZJCc/wKymX7A+G9/eal1XIoO+tohdFs7iM5UNMYllnYo7URauqv09Hy39K+rEekI91pO7AEgP0H7py6h9ujzdoT7fKn4/PEOfi5DuaUSHVATce+vrddJ9uv7v58t4c7ct1S89+V/Tx19f667UvukMmO6wEb76dLlyzr2wj5Tzp7szZkzx+4L+jd0QYH2a2XJFJyJ6rHegxtL5jJk2nv0GfU9uIZXt3V8UOnoCQPSW6L63RipN6oHtq5E6pfqh+qEgi3VqcJQS4Am2hdVj1zbovXlq1eZESNG2OlV1I35j7f+X6fV+0yU0x8+m40ZM8Z77733TGlhUevOooOtdhbtZNpmD6jRsxYV7SDakVy2TPSY9nZKPa8j9O/4Gz3/uhRGd+a2hKPvsy2d8f5i+b+PRAesRPyv3973EBT/9+fek/+9dfTzx4r93B39+3X0+bHvp7M/r/Y3vUcFSP369bPB2dChQ83rb77RKf/QkeOO8DSVhTJv2udV39Qtqs+hgExXVitjoeELCsL0eVV0v95XY+SY4T6ztrsTEN1n7492cSI7uWCqLQrIxF839BzVNZuJjbQl7jV0v3uM6pRKU+R5qkMaP6l6qTr185//3Jxx1pmdu6NliJz80NlOV1FOnz7ddk821NTag612Cnfw1I6iHUNdEgoH3MHXHXjdzuKKuIYpdqnndYR7fT/32pIf534/7dDtUUDZWfS+Yj9/ogNWR7kDWFBi/77+v01niP0+Y3W0fnX0/SqAcXU03rKjAYm6ELfbbjuzePFim7nq37+/bZBOPPmk9iv+Jrj55pu9+++9z9ZR1SOdjOn7dJlynXgpQ6f3oHFs+qw6Nrh9xjWguq3teo6+T/9JREf/Pkhv/r91PAq8tB+o6LEqqjNaqq7o+K37VE9c/XH3S2HkZEDtkJIFqot6rOrr0UcfnZMD/nPuA2e7u+66y7vuuuvsxHzaWcI1LV2Oajh0ANY2VXztFDoIV/TsYbfrfu0k2hlUtPNo53BdGI6/gdO6HtMR+jf9r6H1r71mgkH9ibosO8q9l9jP3Vn8r+X+Lf+yow1eR9+r/28R+/7EHVi3lOqhxL62/9/oiI5+fn/91NIVd7uj1qxZYzNjugpz0KBB5uCDDzbX3XB9h19YV1NeeumlkQ/wf4P19X5d5kLfuwI0NYaa2kJFlKnTd6aTOZV99v2RfY6yaHqeXqMz6z/SW6K/9ZJFi+3FYvpVB/9cdmp/VH/WrlzVuo+rHqlt0T6lbbY+lpXa7K3WNXZS9W/p0qX2JGXSpEnm0ssv65wDQYbIqQ+bC3bddVfvk08+MQMGDLBnvv169LIHY+0oOgBrh1DGTDuAdoyNdbWtXZQ64GqnURCgxyoYcwdh0dIFau52Rw/Obsd0xb2+iugqr/Y057Vfhd3rbCl/g+x/b63vrxMafHGvGfv5YwPizaW/d0e4z9fW++uoRJ+/o9+vGoaOiH1//iIdzcD26dPHfkZ1U956+22d86VGjBs3zv6Aec/uPextvU/t2/o8avS036luKBBz8xDqfQwZMsT86Ec/MndMu7PT3gtyy88vvsTOc/nBBx+Yb20/ymZ+XVuionrmjvs6odY2JQlUB9Vlr31CtxctWmRuufXX5uSTT86ZushOl0UmTpzo6WdZ1AipktufY2lqGUSp2zoAa2dQAKaidU0boYPy4MGDzfbbb29/i6xv3762YVRQJq6R1PNVdFvl0MPGUH+ANPOLX/zCzjW21VZbmfraOruviju5cEG6bqtoP9c+f+CBB5pf33Yr+zQ6zQH77OspC6wMsKgdUp1zWTMFZKqPrutfWTXdp5MGtVslZaVm3rx5BGTILE8/+ZSnn6bQ2YXOeFWZ3VmwlqroCtB0QNZgXv2Gnq64OuzwsebWWzkIA9li5LDhXuQUqqWr0mu2J1zKUui2jg9q7NRA6gehFyxaaL773e+aE088UYXjAJLipJNO8l577TWbKVP7ozZJ8+B1L+tiryweNWqUbZ/0E37qulf7ZYfUVFTY5//74//kRN1kB8wSB//kIE99+LpqSpVeXZY6M1H3pM6QVen1a/y6kkVnIzp7vuKKK8yYsYdRB4AscfbpZ9iGr7pqo+2irAs32qVOxJQJU1ZcAZm6JufNm2d+uNee5sUXX+QYgKSbOXOm99hjjxld/S8KzPRLMW44jbop1VapfXJZMxUFZUcfe4y58tprsr6esiNmgTmzZnvHHHOM2WWXXezVWu5MWP3xrouie/fu5tNPPzVbb7217dLM9flegGw0fPAQz2bHG8O2e6i+qWV8qE7MRJky3a+Mubb9+4P3OQ4gpU4//XQ7vlHtlGkI24yYLgpQJrdHjx5m1apV9kpg3a/kgupqUUmx+XDex1lfV7lmOQv87ne/swGYuiF1hYsqtoIxretgrDNkpX91FYsOyARjQPY5/dTTPHX7qGifV7eQMg46KdMwBp2YKQuhkzM1evYqTCDFHnroodAFF1xg6+W6yvWmurbGdOvR3YTy88za9etMs8aVFRZEopOW4TXK6Kq354Jzzu3YFT4ZgIAsC7z99tt2PIhSv+qS0JmxUr06E9bBV5clq1IrQDv55JOjzwKQTdRVqXGhbvyojgWi44HWdUzQugK2MWPGmKOOOZoTMwTinHPOCd1000127JjGjYlOFpQR08mEujB1MqGibcqYKauW7QjIMtwvLvm5pwqsMwgFXwq8XH+8DsqqzDoYKy2sbNk1v7yWgzCQZaZPn+4pC65gTGNutN8rA+GyZDoe6NigbiA95tHHZnAcQKCOP/740CknnWzKS8tM5br1piAv33TrWmGKCgpNbXWNCUXOJ5RkUPumOqv5ym647vqszpIRkGW4V155xR5sddWUzn51ENZB111dqa5LjRtTwHbhhRdGnwUgm/zpT3+yGXBlwRSMuRMynYy5YQtuUL9+yBlIB5PPOyd05JFH2gyYG9+oequl6q3qs+qy6q3aNGWBsxlnSRlu2JCh9oxBlVfcQVlF666iq0IvWrKYvzeQhUaPHu3VbKw2och+rvFho7bb3k6smVfUMv+gjgXarvnG5n36CccBpJU9d9vd01W/6uVRQkHjoF1vj52bzGu246B79u5t/vPxR1lbf8mQZbAbbrjBK4jE1CpFefm2aGZ73daPiuc1e6amrtZW5lNOOzX6LADZpqpyg80s6Mf2SyMN2JrK9TYY00+PlRQUmnCkYSspKjL7779/9BlA+vj+Xj805d0qTEO40Q7udxeluastVdQVr+TC448/nrXdlgRkGWz+/PnRtbZp/IjSv9dey9gxIBs99ccnPQVjoiEL2udFWXNlx7RU0ZCGkSNH2vuAdLL77rvbXhxlxrRUVkxBmNZFdVp1Wz0/Gn6TrQjIMtjHH38cXWubKrGmxACQnfRjzG7Igmifdw2ZG5Oj28o4nHv+eZyYIe1MnDjR1kvVUdVXjXl0AZmK6rQLyDTJebYiIMtgOhB7kWrcXglHKvXo0aOjzwCQbexxINpwKTBTwyVuqe2i7h8gXfmDMDc7gDJjqtMKxNxt97uY2YiALEM9++yznippIqrMe++9d/QWgGyjjIG6JsV1XYrrrhQFZ+oGAtKVfkFGA/mV1dVSXewKwBSIqa1T3XYZtGxFQJahdEWKneYicvLbXlHlPumkk1pOlQFkHU387MbYiJZqxLR0GTPdVoMHpCs3VYtOJFxxWTFRXVabp23ZioAsQ2n8mDsrbo8GSQLIXgrIFHTpeKDGy2UV/NkxresqNSBdueBLQZmb9kKZMSUVXCCmuqxuzWxFQJahYgfytkVnHQCy14YNG+wyXkCmBswFZBwLkM40bkx1101srHnHFHwpINP4MlE93pShOpmKgCxDLV682B5oE9luu+2iawCykTIJGluj36hU4+UGRJeUlNgGTtkFTbC5zTbbRJ8BpB+dUCjY6tGjh1m9erXN6LpfmFBg5k4uVJ+zFQFZhtKZwqZkyPRjwwCylxoxHQsUfKnB0lLU9eO6gdSIMf0NkN4IyDKUzhg25WoT/ag4gOzljgUuEHNL/wmbMmdnTD6bi3uANEZAlqF0ENbZrxc5xLZXBgwYEH0GgGzz24enewrAXCZMgZnr2tE2UZcPgPRHQJahNqW7Uo477rhIWAYgG+niHjfgWdyAZxeUiRssDSC9sZdmoNmzZ9tTXx1k48095i8Aspe7uMefIRMXjGmpbUx/A6Q/ArIMVFNTYw+0mzIPGYDstWjRIhtwuUH94pbarmOECgP6gfRHQJaB1C2hgMydBQPITZoeQMcDBV82Yx45JriATEGabmtAv6YSAJDeCMgy0PKly0xxfoEx4ez9TS8Aia1ZsdKUFRWbkoJC01TfYJf2uBAppYVFpibcYGqbGs12O+4QfQaAdEVABgBZys3e37t37+gWAOmKgAwAspTrxhw8eHB0C4B0RUCW4eLNPeYvALLTjBkzvHj7vL+4cWQTJkyI3AKQzgjIACADLVu2LLrWNg34z+bf/gOyCQFZhos395i/AMhOmhQ23j7vL5qfrLy8PPoMAOmMNHYGuu7aX3qPPfqovdRdB932fLFwPn9jIAsdeeSR3gdvvxu9FV9j5AAxbNgw8+qrrwZ+HDjnnHO8yPswGzdutMeuqqoqU1ZWFr0XQXBTpLRlt912M3PmzElJ3fneLrt6q1asMKWlpaa+tu5r763Ja7YXqHihkNl3vx+bhx9+OCvbNTJkAJCB1qxZE11rm+YgC3qW/meeecY79NBDvZkzZ5qFCxfablQ1tl27drXvjxJc0fjC9sorr7yioMybNm1aglN/dAYCMgDIQJsyhkyD+pUhC9KN199g5n30ceTNeKYgL9+UFpeY5nBLdj+/yaMEWAqaI0F7O6WipMysWrLM3HPntOhfE8lEQAYAGSgcDkfX2qZunp49e0Zvpd4f58z19GsC6prs1auX/QknZcgqKytNcXFx9FFIV7ogRGMQVY9uuPaXZMmSjIAMADKQAptE1DW41VZbRW+l3ocffmjq6+ttURCmIFJdZWrgNyWgRLD0d6qurrbj/l5++eXoViQLAVmGc/MNtVUAZJ+nn37a0xifePu8vyhoO/PMMyNrwVCDrkxYUVGR7T5VUCbK2jU0NMR9z5T0Kao/+tvp76i/H5KLgAwAMsySJUsSXiEnupoxSBq/5ianHThwoG3clW3REulPAVlJSYnttvzOd74T3YpkISDLcG6+obYKgOxj5yDTlXBx9nl/CTrwOeHEn4b0O5qLFy+201xoSgPNjaaG3gZqcd4zJX2Kspv628md99wdsitIGgIyAMgwusIyvAljsLp37x5dC84JJ5xgRo8e3dpdqYyLAjIFlEhvuhijf//+Zvz48dEtSCYCMgDIMApuFNQkUlFREV0LzjnnnRu6+OKLzfDhw1u7WRVMcpVl+tMFGMcff7y59obriZ5TgC85AzFTP5DbRo8e7akLsNAL2a4/dQOKAh7blRnNPu1/yEHmnnvuSatjwKxZszyNI5NNGQeH5NH3r7rjrz/uKlitT5o0KWV1h5n6CcgyEgEZkNtGjRplg5qSvILWxlRiuwEnHHu0uemmmzgGIO0RkNFlCQAZxw2Kd1MRuKyYy3a4+wYMGGDvB5D+CMgynJsvpq0CIPso6FIGodlEAjDt53mR/0WK1pVN0HaVoUOHtjwBQNojIAOADHL//ffbSWH1szauu9J1Vfpvq4vn8MMP57QMyBAEZBnOP2dMvAIgu2heKJchyzMhW1r392bPLvUj3kUFhS1PAJARCMgAIINoDjKNIbMX9UTHjok/O6Yr5ZhWAsgsBGQAkEHcHGThcLg1GBMFZCquu1JBGYDMQUAGABnky08/M12KSkxBszFh45mCkmJTWb3RNGtQf36eqQs3mrUbKs23vrNT9BkAMgEBGQBkEGXG3Bgyf1ZMtM1lx9LhZ5MAbDoCMgDIIO4nk1xApvnGtO62qegKTOYgAzILAVmG07xD7RUA2UUBmAIxUWZM63YW8+g2lzEbNGiQvQ0gMxCQAUCGeOyR39moS0GXC7y0VFbMzc7vArbjTjieUzIggxCQZTg3/1BbBUD2WLJkySZnyABkFgIyAMgQS5cutYP6pa0xZEx5AWQmAjIAyBDr1q37xlWWCshcRswFZBrUDyCzEJBlmNlPzPIWLlxoSsrKTH30aisA2euF5563fZFzZs32Fi1ZoqjLdOvV09Q2NtjASzP268rLoqIiU19fb2pra81OOzEHGZBpGGiQZI8/9ntv3rx55u233zbz5883DQ0NtjtBZ7au66E9OvPVAVZnvl27drXbNmzYYA/CpaWlpiDBn1ATR7aHsSZA+tJ+vn79etO/f39TUlJijyEKwnr37m3WrFljKioqbDCmY4qKjil6ztixY83d997Dzo2M8b1ddvVWrVhh27X62jrb5jlNXnPLOMlIe7Xvfj82Dz/8cFbWbXbYJDnjjDO8N9980/7Ir85aVUQHTQVBOogqOEv0e3OqhHqcGyei56rooKwz4rqN1dFHxqfZuwFkpi5duthuSu37aqi07+uYoRM6BWQuQ6b7dTxwJ3mnnnqqufzKK9j5kTEIyOiy7HSHHHSwN2zIUO+1v79qli9dZhYtWtQ67kMHzrq6OlukrKzMHljbK3qsKqIOwi4gE21fvXr11+Yci1cSifdvUiiU9ChVVVWt+35NTY2prq42K1eutIP7daImruFyz9Ft5iADMs8mNNnYFD87e7L3zDPPtGbAdLDUTNl5kdsbN260JRwJylzXgoIz19XQHpcNU4ZMr6mDrbou3Gs0RIO7tjRHl23RARxAelJApp9A0nFAxw8dC7SUbt262eEL/vt0jFCm7IuvvuTYjoxChoyArMOenD3He+SRR8x//vMfU15eboMsBUoKmHSwrK2vt2e4yobpgKkASAdPPUZBlra1x53xip6n2y5LptulhUV2vS10WQKZS/u+G7ag/V3HEi01BELHGB0/dL9uu4BMJ2yff/kFOz4yCgEZXZYdMn36dO+X11xrPvrwP2bdmrVmw/pKU9Glq52Qdf3adaZPr9727LZHjx42INOBtLKy0p71qrL17Nkz+kptUxeFuioUwKmiamC/Drg6+GqZiAK49gqA9KXjhAvGXAOloEwnf7oduw9rW6KTPADpKT+6xGb69a9/7d18882mekOVDbZ69eplD5oaaKsDpgbjrl271pR1KbfjvdRlqYOntutgquyYgrNEXZa6ikpcRk0HZ71ea3YtsmxPc4KrLAGkL+33bmiDMgTa97VN66JjitZ17HHHEp24rVi58lp7A8gQgwYOvKamutq2a02R+ux6gsSL/GdPSCLbho8Ybt59992srN+ktbfAuT87x3v++eftgVEHQWWwFGSpIukSdVUcBWnaXlbUMiBXAZQOrFrqOW6bv9JtCf0bypQpCBQFbC5Ys1dhJhhjBiBz1TY1tk6Ho8H+Gsx/3nnn6SpLju3IKHRZ0mW52S77xaXe3LlzWwMgzRGmwEdBkLJgCrbUTanKo+5GBUQa36FgTPQ8NyhfFJB1pCjjptfSGbI7c1bRv6mrO+M9h0KhZEfRhUM6Bi1btsxm6Q888ECCMSBDseNuhpmP/8G76qqrbKCjoEsHQjeOywVcCoaUpdJSY8SWLl5ss2UKxNS9oMBJtK4gTsFcRygTpkBQ70Xr6uLUe9K/o2BQB20A2Wnh0iV2jOp2221nDjnkEPPzn/+cHR4ZiQwZAdlm2enboz1dOdmvX7/WH/lV5VFQpa5DBVjqunSZMZ2xlkTuU8Ck+4YPH2723HNPs+uuu5rDjhjXKd/9808/42msmhuPpn9z0rHH8HcFAGQMAjICsk121MRJ3rvvvmsDLWWiVFmU5VKwpZ8x0XYFYsqKqeKsWrXKZq30kydHHHGEufmWX/FdAwAQBwEZY8g2yYP3P+D985//tBVEwZiupBStawyXprFQl6WyYxrUv2DBAju246STTjKffv5ZiGAMAAC0h4BsE0ybNs2OA1N3pYKwPn362ADMTcKorkuN1VKXobomhwwZYo477jhz513TCMQAAEBCBGQJ3HPX3Z6uXlQXZN++fe2l5QrOlC1TQKbtuuxc27SuYO2iiy4yF11yMcEYAADYJARkCTx03/0m3zOmR9cKU7VuvelW3sVsXF9pt2mOsfKukds11caLhF8N4UZz4cUXmZNOOZlgDAAAbDICsnY8/fTTNjumbkhRt6QyY24OINHAfnVVanD/pZdeqnFjBGMAAGCzEJC1QxPAaqyYgjIFXgrGXEAmbi4xTcK6zTbbmMsvv5xgDAAAbDYCsna89dZbprEpbC+5tb8JmRcyofxIQBYp6qJU0aW4CtJOPfXU6LMAAAA2DwFZO3RVpTJgrssylsua7bDDDub4448nOwYAALYIAVkbrr/+ek8/d5RnQraYZu8bJRRZqDvzoIMOij4LAABg8xGQteGNN96wg/Vjx4y54mhW4YsuuojsGAAA2GIEZG34/PPPbfbLBWPiBvGruKBM844BAAB0BAFZGxSMacC+P/hScBZ7peXee+9tlwAAYMu4Hqmamhrb9qqN9fdOubHc/iRJtiEga4MqgAvE2qMfDwcAAMm1qe1ypiIga0NbV1bGGjZsWHQNAABsCZcR82fFXPDlthOQ5TD7x4/UjfbKmDFjIv8HAABbKjYgE7XBsbc3NVmSiQjI4pgzZ47nonEAAJBcscGYn9tOQJaD9FNIGmAommusvQIAADrGXSznD8pcUoSALIfpCksXkAEAgOSLDcgcf0CWzT1XBGRx6A+uy24BAEDyxQvG1BbH25atCMjiKCkpsXOhKIUKAACSS12RrogCL/VU6bZLkrj5ybIVEQcAAEDACMgAAAACRkDWDqVJ48095i8AAAAdRUAGAAAQMAKydtirPqLzjbVVAAAAOoqADAAAIGAEZAAAAAEjIIujqTFsSoqK6ZIEAAApkZMB2UMPPOg989TTbYZbXbt2NUVFRXZyWAAAkHmuvPwK7/lnn/NeeO75jEiv5ExANvPxP3h7/XBPr7y0zLvqqqvMueeea7R+9ZVXfeMP1dDQYCorK+2M/QAAIHNMmDDBGzZsmDd37lxz1llnmalTp5rxRxyZ9kFZTgRkt/36Vu+KK64wH330kdlqq61M9+7dbbC17bbbmgceeMCcfOJJX/tD1dbW2oCsS5cucece8xcAAJAejjjiCO/vf/+77eFSO798+XL7E0xvvPGG2W3X76V1UJb1AdnDDz7kPf/882bZsmU2EKuoqDBVVVX2j7RhwwZTVlZmXn75ZfP0k0+1/qHUXdmjRw9TXV0d3QIAANLZMccc47333numvLzcjBw50qxatcqMHj3a3u7Xr5+ZN2+eGXPIoWkblGV1QPbkk096v/zlL83ixYvNwIEDTWNjo1m9erUNzNztwsJC+yPi06dPjz6r5UdO+/TpYwO32HnHYgsAAAjeO++8Y9t1teEffvihzZKtX7/eLFiwwCZh1O4vWrTIxBuqlA6yOiC77bbbTLdu3WwXpP4wipIVgK1cudKsWbPG3laAVlxcbP9IjsaQ1dfX20wZAABIf2rrS0tLbTZMSZUBAwbYdnzEiBEmPz/f/hzi2rVrzSOPPGLmzJqddkFZ1gZkY8eO9f773//asWAKvHTlpIIydUOq21JZMgVdvXr1sjPy67ajP6iiao0hAwAA6a9nz542yaJsWFNTk23/RbGA4gAFZYoBNFRJCZt0k5UBma6meOdfb5suZeU2IlYKU8GX/hj6oyiduXHjRvsHU8ZM/cy777579NnGbtdgQKa9AAAgM6jNHjVqlA3ENBSpvLjENNbWmR5dK0xTfYOp2VBl+vXqbQpDeWbFkqVpN54s6wKy4489zlN/set2VJel/kgKynSlhdZ1n7JfipLnz59vvv3tb5ubb/lV6zWT7rF0WQIAkBnOO+88s3DhQtsjpqFI4XDYBmZaVzJGS8UAGh+uZIwyZ9defU3aBGVZFZBpEri//e1vNl2pP4i6IvXHUJZMS90W/VH0x9BVlkOGDDFHHnmk3e64x+p5AAAg/U2ZMiW088472+BLXZMKyJRgcYkYtfui7Uq4aDz5c889Z/44Z25aNPZZE5DdPe0u77777rN9yPqyNQ5MXZQKupQN05evrkj9oZT9clNa/OxnPzPnnn/e12YU03Ndhk1zjbVXAABAeogEWKGhQ4fawfvFpSWmqKTYNDaFTU1drWk2nt2WX1hgt2lokh539913R58drKwIyDQL/y233GIGDx5sx4Yp4FIgJnV1dfZLV7ZLAZmyXxozpgzY+PHjzeSpU74RVuk+Xa3homkAAJAZ1Oul3i+1++oR09AlLZVo0TYla5RwUU+a2vovvvjCTDl7cuBZsqwIyH7zm9+09gsrPamxYfriXd9xOBxuyXZF/hC6XwHXbrvtZqbdfVfcHJceq+fodeLNPeYvAAAgfUyePDk0adIkU1dTa9atWWtMs2dKiort7drqGlNUUGgK8wtskka9Z0riqOvyjtt/E2irnvEB2X77/thbsWKFGTRokPnqq69sJKyAS92OokhYWTJ94bq6UlmvMWPGmCdmz2qzw1GPc12cAAAgs1x77bWhPffc08YD6pbU0hUlakSJG6277ZqfLEgZHZAddNBB3r/+9S/Tu3dv2w35ne98x2bK1G2p7JgyXfrCFWAp26WlUpSPPjaj3dFfCtr0R1LGDQAAZJ6Zf5wTGjZsmE3KKCZQHKBkjdbdOHJ3xaWKkjs/OeDAwLJkGRuQHT3pKO/j/3xk+vbsZdatWm3KiortHCPF+QV2PT/ylWqpgfdlXcrNmnVrTfeePcw/3/5Xu8GYaOBfQ7jRlJS1ZNkAAEDmOeKoiaZn/75mTeX6SMQTsgP6NU+ZxpYrTujTo6eprdpoQk3NZmDffmbeh/8xp55wYiBBWUYGZGedcaan36lSitEN2lOXpKJgZci0TfdpvJhm5des+7r68oYbboi+AgAAyHYXXHBBaN9997XDmTQMSXGChiS54UxuXLnGjeu2iuKLu25L/XiyjAvINInbq6++an8eQV+iolxdJaEvUalIpSRdV6WmuNB9+uLPOussM27cuITZMQAAkD2mT58e0vRX6pZUrKDATHGBEjlK4Gi7ujHdIP+lS5cGMp4sowKyhx540Hv88cfNunXr7Lgx0dwieQWRL7ao0HY1KiVZWl5mCouLTG19S8bsjDPO0Ay+mx2M6Q+lLs/2CgAASG8arqRxY/rBcXVZKiDTnGQanqS2XHFEuLnJDlXS9lVrVptjjjkmpVmyjAnInn/2OU9djhqw36NHDzuIX9kwDcjTQH11TWpd3ZPqwlTR+sEHH2yuueYaQicAAHLY5MmTbUKnb9++NpZQ0kW9aOFwy08saaneNWXMFF/86U9/UnYtZUFZxgRkF1xwgV261KIbM9avT19TuW69nWukW9cKO9fI8qXL7Lwje/1wT/Poo49ucTCmLtF4c4/5CwAASH+XXnlFaJtttrHZMXVPek3NkSAoZAry8u3cZFo2NUaCsrp6276r+/K1116LPjv5MiIgO+jAn3iKavUl9unTx843NnLkSJsRU7+wIl0VRbT2yonI4/R7Vk8+/yyZMQAAYL3411dCvXr1soP8lSFT3KCYQYP7lehxv+yjTJkep3gjVdI+IBs39nDvnXfeae2G/PLLL+1PInz22Wd2HJkG32nZv39/242pwE3zkR1zzDHRVwAAAGgxdepUG4Cpi1LBmIIvjStT1kwXByow0316jHriUiWtA7KjJk7y3v3nv+xcY93Ku5jG2jozoE9fk9fs2fnGNqxdZ0LFhaa5IM+sqao0DabZ9Bs8yPz5ry+HDj78sC3OjumPoyBPGbhQYYHx8vNMbWODqWmot7dVGr1mYwryo88AAABbSoFRbX29KSopse3r2g2RACnSiqvtLSgqMqHI/Uq4hBsao8/YckcePSl03Mkn2sniNQRKWTEt1fZrqJICMo0tW7x4sb0oMFXSNiD76fEneB999JHp3r27jVA1QF/TWShiVTpRUawG8iuK1XaNLVO57LLLoq+w5TRdxpIlS8xWW21l/2D6wyh1qYsJNJOv/j2tq3IAAICOUUCkNly9YBqKtNNOO7UGSmqHFSSpzXczLHTU1VdfHdp+++1tTKG2XDGF/j1NqaU2f+uttzaHH364Of3001M29CktA7KfX3yJ7aZU8KMvS1+O/hi6mlJ0W5GsivqBNbWFXHjhheboo4/u8Jc3fvz4kII+va5LWSqdKQrEVGlEV2oAAICO0WB7DaJXO6/eqffff98OQ1Iwpq5EJWXULitQ6iwv/v2voYMOOdhOm1Xf2GCnzFJpbAqbquqNZvbs2Skdh552AdmD9z/gPfXUU2bDhg02Eq6urbHzg3Sp6GqKSortF6W5QrRNRcGZMlpjx47dornG2rL//vvb8WmKmPXD5QrMFKBpxn9tnz9/vtlvv/2ijwYAAFtKPwSubku1t0rAaL6wfv362aIkiNpg/S7l+Rde0KlB0l333Ru68cYbzY9//GPb46Y2XmPMPvr0k5QGY5Lyf7A9c2bN9m6//XabPly0aJEZOnSoqY8EXEpZuv5dfWEKkjTAX5Hz8tWrzMSJE80DDzzQ6Z9ln3328T7/9DObFVN0rn9P0buCxb322svM+ePctPr+AADIVBecd773/PPPmy+++MJmzNQ7pfZWbe+IESPMcccdZy665OKsbXfT6oNtv+12noIupScVdCltqR8IV3SsTJj+KOqiVKTsuhD3OWA/88QTTyTtc+y37489jSdTxXA/1RQJ1Mz9D3Z+AAgAQC67/NLLvNdff90sWLDAtreKCb71rW/ZSd4nT52S1e1u2ny4vffcy1NWTAPqNIWFMmCaW6y5odFmpfSTB0pjKlu1bNkyG7Tttttu5pn/eSEln+HZp5/x9G8eMf5IAjEAAJLoybl/tAkaDUk67PCxOdHupsWH3OuHe3qaV0x9twq6FJSpi1ITtmmqCwVha9eutQP6dPXF8uXL7Vxjf33jNYIjAACQ8QIf1H/4wYd61ZUbTFFevqnbWG0DsC4lpfa2smOi7kpd7qoBfwrWdtxxR3PKKafY+wAAADJdoBmmyy67zHvphf+xA+YVdOmSV2XINEZM1G2p7aL7VNRtqOyZujUHDx5sFi5dYu8HAADoLOqRUwyimGT48OHmwAMPNMcef1zS4qbAArK77rrL+9WvfmUKvZC9clJBlgIw9xtSrstSWTEN7lcgponb3AB/jS/T83r06ZxJ4gAAAJyVK1fa+UbdLA+aikvDpR7+7fSkxE6BBGQPPfSQd+edd9orJQuib0GBl4ItBVkuIFOApqyYAjC3TVc6ijJpur8yEqwBAAB0Jg2V0uwOikFcb52SQ2PGjDGPPPq7To+fAgnIDjzwQO+1116z84w01NTaD6jMmAIu0RcgCtL0M0XarnUtFbCpuICsPtq9CQAA0FkUl2jKKy0Vb+inHPULQsqUXXvttWb8xAmdGkMFMqh/4cKFdhZeTQDrNTWb5nCT/cHQxvoGe7sgL98WrRcXFpn8UORtNnu2FBUUmpKiYnvfxg1kxwAAQOdTz5xmf9Ak9UoIafotLXVx4T//+c/oozpPIBmy7bff3s7ppbFh5YUt48ZURJkwFd1WpkzjxjSgTl+MtqlbU9kxres1Gpqb7PMAAAA6i4ZM6ScTNVRK023pZ5x69eplL0TUTz09PvMPnRpDBRaQKUs2cuRIU72u0gZYijoVgLnuSheQKRBzV1/qdmz3ppcf+MwdAAAgyyg5pLHu9ne1q6ttgki07ZBDDjG//d0jmR+QbTtia0/dky7IEgVauq1IVJkzfXCtu8ALAACgsxSVldrfytSvASjuUA+cZnBQLGJnefBakkMKzJQc0jgy9djp/j322MM8OvPxTo2hAo929CH93ZQKwPR7lfoNK3dFJQAAQGfSOHY37ZaCMY0X0zQX6pbU7ViKUZIp8AyZok39VqWuplRwJvbqyejVlXkF+XYbAABAp4nEGAqyFIusWrXKBmMK0hSM2diktOxrGTINn3KzPCQjQxZ4QGbyQvbDu0tL9SUoINOH3mGHHezvWAIAAHSmcHTIlGIQjRHTWLHXX3/d9s4pCKurqWk3IJvxhywMyNxVlOqqVGCmgExdlqeeeqr52fnnBfIeAQBAbhlzyKHeRx99ZAOvokiMksqALPAxZIX5kQ8cnYtM625OsqbGsBkxbHj0UQAAAMnlfhnIjmP3TLuls6XFJYxKFyri1BWXGjumpS4rdT9VAAAAkGyKOzR+XVmxVAs8IFMXpT64gjL12yow0yB/bVNXJgAAQCooM6b4QxPCplrgAZkiUfXJaqkATPOPaT4Q9dUGEaECAIDc1BSJQ0oKCk1R3jfjj2RPxZUWXZYAAADpTAP8k4mADAAAIGCBB2ReqP0CAACQKi4TFi8m8ZfORoYMAAAgYIEHZPHm9vAXAACAVHGD9+PFJP7S2ciQAQAABIyADAAAIGAEZAAAAAkwDxkAAEDAmIcMAAAgywUekMWb28NfAAAAUoV5yAAAAHJU4AFZvLk9/AUAACBVmIcMAAAgRxGQAQAABIyADAAAIAHmIQMAAAgY85ABAABkucADsnhze/gLAABAqjAPGQAAQI4KPCCLN7eHvwAAAKQK85ABAADkKAIyAACAgBGQAQAAJMA8ZAAAAAFjHjIAAIAsF3hAFm9uD38BAABIFeYhAwAAyFGBB2Tx5vbwFwAAgFRhHjIAAIAcRUAGAAAQMAIyAACABJiHDAAAIGDMQwYAAJDlAg/I4s3t4S8AAACpwjxkAAAAOSrwgCze3B7+AgAAkCrMQwYAAJCjCMgAAAACRkAGAACQAPOQAQAABIx5yAAAALJc4AFZvLk9/AUAACBVmIcMAAAgRwUekMWb28NfAAAAUoV5yAAAAHIUARkAAEDAkjAsLbFtR2ztNdY3mIKCAjt4zg2gKywsNE1NTbZo/brrrjOTjj82kPcIbI4//P5x79NPPzWLFy8269atM9XV1aahocEU5xdEHwFkn7y8vK8dw3U7Pz/fHtu1Pmzk1mbIkCHm3PPP4ziOjLDPD/f0VixbbsLhsL2tuq06bY/nxcWmsbHR1u899tjDPDrz8U6t1wRkwBa47777vHfeece89Y//Z+rr601tba2tt9pxVaS5udkU5bWsA9nIHb9dURDmgjItq2prbAOmfaFLly5m2223NXvvvbe5/MorOK4jLbUXkBUVFdntyQrI6LIENsPUqVO9HXbYwdPJwuuvv27q6upaTyDKy8tto1NaWmpvq0HS4FAKJVuL+JcuMFMApv2ib9++tnTv3t0GZu+//7554IEHzA7bj/K+t8uu3o033piEodFAZgo8IHPzebRVgKDNmTXbO+Lwcd5222zr/eV//myaGsOmqKDQbFhfaRudcOSMSVmympoas3HjRttdqdva7q/LFEq2lfzCgtaSV5BvSyg/0qzkRe6MlAULFpi1a9fa/ahbt26mZ8+epqSkxJ7IrFq1yvx+xmNmt12/5/3mttsJzJA2dFJhlzH1PbZ0tiS8ZGL+Lstm036X5VHH0WWJ4Pz02OO8hQsXmkWLFtluSVG9VTZMDcyqNWtsNkBFGQKltnW/lrpdXVVlnwNko9hhJ27psmaFxcWtJy2u61L36fiu51ZVVppevXrZk5gRI0aY8847z4ybMJ5jPgKjLsvlS5fZemsDr0idbqvLcsYfGEMGJN3MmTO9++67zyxbtNg2JGpEtDOqG1K3lQFTPS2NBGaO6rEaHO2wKrq/Z0W36L1AbnDHc2lobvramDJx3ZlalkT2Kbd/KZOm7v7TTjvNXHvD9Rz3EYggx5ARkAExLrroIu+pp56y3Y8leS1Xi7lgSzumrrTRUrfXb6yy66rLbsyYq9Mqec3/1zgB2UbHanEZMbd0x/T84qLWAKx1WzQ402PzI5vU0GlbRUWFqaysNEuWLDE/+clPzLN//hPHfqQcAVl0RyUgQ9AmT57sPfvss3Y82IABA0x9VbXdCVVHNe5FNAZGt9WFWVRWatfjNTq24SEgQxZT46TAyl/E7QeNXrNdaruCMH+WTI9RQKb9Rve7fUhZMrUN2r++WryQ4z9SioAsuvMSkCFIhx06xk5loSvC1HBs2LDB1kVdOakGQ0Ga6qoCMjUeyqB1KSn9WmOi52mnFVuXow0SkM1cIOaWTklRsVmzZo3db3r37m2P+ZqnT41a165dbSMnyjrrudru9p/169ebsrIyO65syvnn0g4gJdoLyJiHjIAMKXD6qad5//u//2uDLNU/0Zm6Goeqqiq7M7rb2lEVgKn+NkXqsbZph3VBmeqzHqNxZuVdu9jXArKR6rnLfCmgUt13x3DtDzrOb7XVVvZ+XRyjk5o+ffrYkxyt6+RGmTDdr+dqX9PrqPtSbYBef9CgQebICePNlHPPoS1A0pEhixQhIEMQzpn6M2/mzJm2PqohUFCmOqkzeF2ar6spdVWldkQ1IlqqfmrnrK2utjurq8M6o+/fv7/t7tRrraustNuBbKR9QcGU9gEFUjYIa2y0jZeO44sWLLBBlrZrH9I+pgDMNWqF+QX2fu1L2nd0n56rQM21B7rdo1dPc9VVV5kjJ02kPUBS5XRAxrQXCNIvLvm595e//MXMnz/fdlWq3qnxEI0ZUyPhJn9Vulr3u6ss9bhePXqYnXfe2ey///7mp6ecTF0F4vjFRRd7L7/8slm5cqU9UVEDpyEBCrwUkOm2Aja1BSra3zQVRnFhkc1M19bX2Z9gevXNN9jHkFQKyIKa9oKZ+pGznnjiCW/27Nlm2bJldsJKBVzKgCnQ0g6ooEsBmaMMgJv4ddSoUebss882//lkXkg7JcEY0Labb/116O1/vxe65777TP+BA83ipUsjjV1LRk37nYoaPO1bagB1W42fGj7th+ri/OSTT8yEI8e3nL0DWSjwgCwU2b3aK0Cy3HHHHbZB0EFfjYDW1f2iMyCdHelMXpfg6yxeZ+86k1eANn78ePPyX18JXXXN1QRhwGY47PCxIe079z/4gBkwaKBZv3adqa7aaJrDTbb7Ms+ETLih0d7Wr2HoxEj7o6bD6NGjh3nrrbfMLbfcQsuApNLJt13GxCOxpbORIUNOuvbaa72PP/7YBlrqEtFBX12RWtfOqLN1revMXF2WOnPXDyNfdNFF5t777yMQAzpg4sSJoX/84x+hww47zA7a1/6mkyGN29RSt3WCpKITImXJFJxpPOe9994bfRUguxCQISfNmDHDXu21evXq6BZjAzI1BioKwjTAWI2AujF32mkn88b/vhk68+yzCMaATvLwjN+FNAmsaDiAuIsDtO8pc62TJU2ZoSyZZvPX+tixY5OQnwCCRUCGnDP+8HFeoReJqxrCrZffKxvmBhJr7IoaAm1rbAqbYSOGmz/9+X8IxIAkuPHWW0JjJxxpTEG+KS0vM5VVG1ovrtE+qRMl0+zZ7syKsnKzdP5Cs+DzL6PPBlLHdWUmCwEZcs6XX35ps2AKujR+TF0i6iJRd4jb4TRWzI0Ze/vttwnGgCS6++67Q4ceeqjd57RP+rNjWmp/dXSipMllr/rFZWTJkFKqi8lEQIac8uubbvZ0VaXGpCj40gFfSzUEOivXbQVn2vF0pdeUKVOizwSQTBqbqX1QXZKaEkMZMgVn4saTaf90U9G88MIL9j4gWwQekKnnqL0CdKbnnnvOnm278WHhyAFeB3pRIObGr6ibZJ999jFTp06lFgIpcvPNN9uxYpqGRvtoiX4rNrIHauiAlvWNDZFWK2S7NletWW2mT59OlgydzmXCXBzSVulsZMiQUzQBrM7Clf1S4KWgTDTFhc661X2porP0h6Y/nIRdDkBbDhl7WOjAAw+0wZgyYe4ESQ2kuiq11H6q/Vf76dy5c6PPBDJf4AFZvLk9/AXoLJdcdLGng7y6KzVeTFkwHeCVGdNAft3WwV/dJHvuuWf0WQBS6cHfTg/piku7r9bWmfxQXqShCpnS4hI7c7+2aZ4ytQ8ffPBB9FlA53FjiWPjkdjS2ciQIWe89tprNiOmna11h4ssFYjpai4FZW5s2X0P3E92DAjIEUccYafB0MmSMmM6UdK+qeEGbsC/MmXhcNg888wzSWgagdQjIEPOWLFihR28r8lgNb2FMmHq+tBSB3j9lqWWCswABOfehx8M6SRJJ0cKyBR4ad9VYKbbbsiB1t94443os4DMRkCGnPD88897Orgr+NJBXGfaOqBvWLvOdO/S1TQ1Npqqyko7L9nRxx4TfRaAoFT07mnHe+rkSVkxnUhpH1bWTEVBmcr7778ffQaQXKp/yURAhpygy+h1xq0MmM62tS4K0LTubitQGzFihF0HEBz9pFIiCswUsAGpoPYjmQjIkBNWrVr1tYBMxWXM3HYFY9o2YcIExo8BAdNvxyai8Z/r16+P3gIyW+ABmRdp+torQGdwv1mpgEtdlQrA3AB/t66AzGXKAARr8ODBcdsEfxH99BnQmVwmLF6d85fORoYMOUEDgl0AJloqANOOp3VlynQ/ARmQHjQ1TSLss8gmgQdk8eb28BegM+iSeR28XdekW3cBmWip7QCCpwH98doEf2F/RTK0tglx6py/dDYyZMgJ6qZ0XZIuO+bWxU0Kq9m/AQRPAVki2mfdPgxkOgIy5AwduHUAd+sKyBSYia7WIiAD0semZL+0D7vxPkCmIyBDTlDgFQ6H7aSvCsY0y7ebAFYHdY1X0TYXsAEIlrLWidhuTTJkSJFk1zUCMgAAgASSnY0lIAMAAAhY4AFZ7LwesQUAkJvitQn+AiSDy4TFq3P+0tnIkAEAAAQs8IAs3twe/gIAyE3x2gR/AZLBDd6PV+f8pbORIQMAAAgYARkAAEDACMgAAAASYB4yAACAgDEPGQAAQJYLPCCLN7eHvwAAclO8NsFfgGRgHjIAAIAcFXhAFm9uD38BAOSmeG2CvwDJwDxkAAAAOYqADAAAIGAEZAAAAAkwDxkAAEDAmIcMAAAgywUekMWb28NfAAC5KV6b4C9AMjAPGQAAQI4KPCCLN7eHvwAAclO8NsFfgGRgHjIAAIAcRUAGAAAQMAIyAEDaycujeUJ6YR4yAEDOSfacT8DmYh4yAEDOISBDrgk8IIs3t4e/AAByjwKyeG2CvwDJwDxkAABEkSFDrgk8IIs3t4e/AAByT3Nzc9w2wV+AZGAeMgAAosiQIdcQkAEAAASMgAw5oaKiws5r1NjYaBoaGky3bt1MXV2dqW8Km9KuXUxlVVVkb8gzK1asiD4DQJDWr18fXWub9unq6uroLSC5mIcM6AQKyAoLC+0BXMuamhpTXFxsd7BwONy6vaSkJPoMAEF69913o2ttU7em9m0gFZLdjU5AhpwwdOhQuywoKDD5+fk2O+YCNAVk2ubKww8+xOAVIGAfffRRdK19Q4YMia4BmS3wgMw/p0e8AnSG448/PqQgTAFYU1OTDcZ0FZdu66xHS91Wd+bf//736LMABEVdkfHaBH/RPrvDDjtEnwF0DpcJi1fn/KWzkSFDzigqKrJdlAq6unTpYurr621w5gIyrWvbJ598En0GgCDccsstnoKtRLQv77jjjtFbQGYLPCCLN7eHvwCdxZ1JuwyZlipuoKZrAHRmPvuJWdQ+ICAvvfSSPTmK1yb4i06ypkyZkoRcBXIZ85ABSXbAAQfYHc2NIdNSNK5MwZjLlOkxs2bNsvcBSK0ZM2Z4X3zxhd0XExkwYEB0Dch8BGTIGVN+NjUSa4VsdkxZMC3dQH4XkLny8ssvR58FIJXmzJljr4LWsIJEBg4cGF0DMh8BGXJKv0EDTVPImKb8kAlHan++Z0xjbZ0pKSg0RXn5toTr6s2gfv3NTqN2TEJSGkBbfnXTzd6C/843ZSWlJtzQaBqam0xeUaExBfmmLtxouvXqaSqrN5qw8Uyj12zmzp1LdyVSxnVlJgsBGXLK1KlT7YSTPXv2tGfhrotStFRRtkxjyzSJ7Kknn0JQBqTIE088YZYvX273z8rKSjtX4MaNG1sz2QsXLrSTOmuYwdZbbx19FpAa6j1JJgIy5JSJEyeGBg8ebA/yOqg7LhgT7XThcNhewfXKK6+Ye+++h6AMSLLdd/u+V1VVZSdnXrRokenTp489OdJ+qf1RS51AKUjTGNBx48ZFnwlkh8ADMv+cHvEK0NlOPvlks2HDBlNWVmaavObW0mwicVdepNJFita1rby83Nx2223m9ltvIygDkmSfvfb2li1bZgMw7XMKvHRiVFtba7p27WpPjsKRoGzQoEE2s929e3dzznnn0kIgKVwmLDYeiS2djQwZcs75558f2nnnnW1Qph1PjYAb1O/Owl1Xph6jbNojjzxibrn5VwRlQCf7we57eNrH1q5da/dBBV/6OSQNLdB+KcqKaRoM13157LHH2u1ANgk8IIud1yO2AMmgLJnGieWHIsGXiZzqNEcqW6RoXdtcUYPQq1cv+6PjN998szn7zLOolUAn0PQWe++5l7dmzRrz4Ycfmu9973tm3bp19iSotLTUnhApi63bypopWFMWTY+77IrLk5CfAFqo7tmlLxaJVzobGTLkpGOOOSakMSiaWFJjydwOqIO+iqNL79VgaCCxLrF/8sknza477+I9cN/9SdgdgdwwZcoU75JLLjEffPCBzYx997vfNfPmzbP7mIKwlStXmh49etipacLR8ZwaW6bJnWfOeoJgDFmJgAw566GHHgq5ucgUkPmDMS2VHVu9erXRRQBqEBYvXmz69+9vu1Kuvvpqc8B++3s6y7dPAJDQT3/6U2/EiBHeU089ZQMu7VsKwLRv6aRH+5tOkPr27WvXtQ8qW6Z9To8bM2ZM9JWA7ENAhpx25bXXmK49upslK5abLt272fmO1lVtMIWlJSa/uMhUlJWbdasijYQJmT49eto5y0oLW7Z//MGH5rJfXGp2+vZob/wRR3rXXHW198c5cwnQgKh775jmnXPWZG+v7+/hDRu4lfe3v7xk8sLNpryw2NRt2Gi7IxWAuekttBRN3GyvpmyoN90i+2coP8/svOsu5sqrryI7hsC4npRkCaRybztia6+xvsHuiP6shP/3BbV+3XXXmUnHH8sOiKS66oorPf12ni6118BhnZ3rSi41EL26dbf102XQdLm95idTY6Grv1atW2vvU1122TY9Thk1PU5jX4Bs5fYL0YUwrv6rm1H1X/uP9hkV0T6i52g/07bi8jL7HNHjlRHTbXeVZdduFWb+/Plm//3313AB2gIk3T4/3NNbsWy5rcOieqg6qWO6hrhou473e+yxh3l05uOdWicJyICIKy+/wnvooYdst4l2PNVJNRzKiIkCMHWdqNHQ2bsaDAVkmvVfjYiKq8futr1oINrYANlIdV713NV91Xd/QFWzocre1vFcx3t39bJoqYBs6dKldn/RcAA9VuPHdJ9OjFauXmVGjx5tXnzxRdoBpEROB2Sa78ntzPECsqOOIyBDaky7407v1ltvtetqEBSA1dXU2MZCtDOqXqq+KjDTDtoUrbviGiN/w+OeC2QjV8f9QZm2ufpfGjmR0XaXMVPRdu1LKquiF8xon3FZNA3e1+M0U/9uu3/fvPDCC7QBSBkFZMuXLmup05Ga115ANuMPBGRA0ujqyV/96le2/mlQcd/eve3OqC4WzSLuMmNaatLKkrKy6DP/L1ugBkrrrl4D2Ur7hqP6Hlv3Q5Gl9hU9ToGYuABOy/zIfqYGTic/CsQUhGlcma623HHHHc3suXM4/iOlggzImIcM8Dnz7LNCX83/b0gNhGYFX7l8hamu2mjnJyspKrZLnUw0NYbtPGVqQDTWzI0tsztxZAdW4+MaIQolW4tOVNRAtQZgkW1uaUtks9cUCcAi+4uW2n8K8wtMkX7MP1L0m5XaZzT1heYg037UO3ISdMQRRxCMITCt9dgXi8QrnS2QCs8YMmSCqZOneO+89U/bWCgbpiBNdVaNkIIvmx0oaBkvox1Y9Vh1V2f+uu0yA0C20r6gOu72AXdCotsquiJZ+4OCNhe4abuO79qXVqxZbYYMGWL3J/2o+Le+9S3NUWaOnDCe4z4CwaD+SBECMqSbGQ//1nvmmWfMm2++aeukfkNPwZl2Tl1BWdvYYBsYcV0xorqtooYGyFYuGBMXeLkGTKW+usbuNyrissii+wtKiluGBvTtqx/+N9fdcD3HewSKgIyADGnukUce8ebOnWv+/e9/twZjqqOhxqbWbJiKyxJop1XRjgxkK9V5/zFcS+0DoqUXWVUQpnVdqayl9h89Tsd/ZZjHjh2rH/DnOI+00F5Apjqs+pysgIyJYYFNcPLJJ4d0tde0adPMUUcdZce56PJ8zR6uzIBmEtdt/cySu1rMf8JBoWRjUePkL+5ExJ2UKADTYH135aSb/FU/laSM2Oeffx4iGEOmUJ1PpkB2BDJkyAZz5871XnjmWdvloh891tVhorMpNUQK1NQIAblC9d5fGiJBmfYDdfXrqskf/OAHZuo5P+OYjrSV012WTHuBbPP4ozM8XTGmbIDmWAKylYIuxwVhrute5ZQzTuf4jYwS5LQXgewsBGQAACDdBBmQMQ8ZAABAlMv8xotJ/KWzMagfAAAgYARkAAAAASMgAwAASMB1ZSYLARkAAEAC7gLEZCEgAwAACFjgAZm9rLSdAgAAkCouExYvJvGXzkaGDAAAIGCBB2Tx5vbwFwAAgFRhHjIAAIAcRUAGAAAQMAIyAACABJiHDAAAIGDMQwYAAJDlAg/I4s3t4S8AAACpwjxkAAAAOSrwgCze3B7+AgAAkCrMQwYAAJCjCMgAAAACRkAGAACQAPOQAQAABIx5yAAAALJc4AFZvLk9/AUAACBVmIcMAAAgRwUekMWb28NfAAAAUoV5yAAAAHIUARkAAEDACMgAAAASYB4yAACAgDEPGQAAQJYLPCCLN7eHvwAAAKQK85ABAADkqMADsnhze/gLAABAqjAPGQAAQI4iIAMAAAgYARkAAEACzEMGAAAQMOYhAwAAyHKBB2Tx5vbwFwAAgFRhHjIAAIAcFXhAFm9uD38BAABIFeYhAwAAyFEEZAAAAAEjIAMAAEiAecgAAAACxjxkAAAAWS7wgCze3B7+AgAAkCrMQwYAAJCjAg/I4s3t4S8AAACpwjxkAAAAOYqADAAAIGAEZAAAAAkwDxkAAEDAmIcMAAAgywUekMWb28NfAAAAUoV5yAAAAHJU4AFZvLk9/AUAACBVmIcMAAAgRxGQAQAABIyADAAAIAHmIQMAAAgY85ABAABkucADsnhze/gLAABAqjAPGQAAQI4KPCCLN7eHvwAAAKQK85ABAADkKAIyAACAgBGQAQAAJMA8ZAAAAAFjHjIAAIAsF3hAFm9uD38BAABIFeYhAwAAyFGBB2Tx5vbwFwAAgFRhHjIAAIAcRUAGAAAQMAIyAACABJiHDAAAIGDMQwYAAJDlAg/I4s3t4S8AAACpwjxkAAAAOSrwgCze3B7+AgAAkCrMQwYAAJCjCMgAAAACRkAGAACQAPOQAQAABIx5yAAAALJc4AFZvLk9/AUAACBVmIcMAAAgRwUekMWb28NfAAAAUoV5yAAAAHIUARkAAEDACMgAAAASYB4yAACAgDEPGQAAQJYLPCCLN7eHvwAAAKQK85ABAADkqMADsnhze/gLAABAqjAPGQAAQI4iIAMAAAgYARkAAEACzEMGAAAQMOYhAwAAyHKBB2Tx5vbwFwAAgFRhHjIAAIAcFXhAFm9uD38BAABIFeYhAwAAyFEEZAAAAAEjIAMAAEiAecgAAAACxjxkAAAAWS7wgCze3B7+AgAAkCrMQwYAAJCjAg/I4s3t4S8AAACpwjxkAAAAOYqADAAAIGAEZAAAAAkwDxkAAEDAmIcMAAAgywUekMWb28NfAAAAUoV5yAAAAHJU4AFZvLk9/AUAACBVmIcMAAAgRxGQAQAABIyADAAAIAHmIQMAAAgY85ABAABkucADsnhze/gLAABAqjAPGQAAQI4KPCCLN7eHvwAAAKQK85ABAADkKAIyAACAgBGQAQAAJMA8ZAAAAAFjHjIAAIAsF3hAFm9uD38BAABIFeYhAwAAyFGBB2Tx5vbwFwAAgFRhHjIAAIAcRUAGAAAQMAIyAACABJiHDAAAIGDMQwYAAJDlAg/I4s3t4S8AAACpwjxkAAAAOSrwgCze3B7+AgAAkCrMQwYAAJCjCMgAAAACRkAGAACQAPOQAQAABIx5yAAAALJc4AFZvLk9/AUAACBVmIcMAAAgRwUekMWb28NfAAAAUoV5yAAAAHIUARkAAEDACMgAAAASYB4yAACAgDEPGQAAQJYLPCCLN7eHvwAAAKQK85ABAADkqMADsnhze/gLAABAqjAPGQAAQI4iIAMAAAgYARkAAEACzEMGAAAQMOYhAwAAyHKBB2Tx5vbwFwAAgFRhHjIAAIAcFXhAFm9uD38BAABIFeYhAwAAyFEEZAAAAAELPCDLz8+3A+iam5tNXl6eve3oNgAAQCo0NTWZcDgcN/7I+nnIFIy5oKympsbU1tZG7zGmvr4+ugYAAJBcLjmkwCxW1s9DVldX1xqU6UsoKCgwxcXFtpAhAwAAqdK9e3dTUlISvZVawWfIQsY0eZGItCDflHUpNwVFhaauod7U1kcCteRmBwEAAFpVV1ebtWvX2h47N99YW6WzBR6QlZeX26VLDzY2NprKykr7pfjHkwEAACSTeuZKS0vN4MGDo1tSJ/CALM+ETHO4ydTX1pmGunp7u0tZuenWtcJUdOkafRQAAEByaeB+VVWVWblyZdy5x/yls6XFGDKNG1M2rKGhwa736NHD3vfVV1/ZJQAAQLL16tXL9O7dO5AeuiT0gia27Yitvcb6luBLQVhFRYVdqs9Wg/mVLvzyyy/NAQccYNbXbIw+CwAAoHM0NoVN94puZv369cZrajbbbL21efHFF01ZSWnr7A/uokPFKEVFRXZKDMUue+yxh3l05uOdGkMFEpBt1X+AV1xYZD8oV1ICAIB0k1dUaKfi0hh3JY6UNFLCSLd333138/s/dG5AFkg0pCyY5hhj0D4AAEhHShq5IVXKjOmiQy21PRmTxAYSkCnCJDMGAADSlQKwwsJCG5BpwlgFYS52SUYME0iX5chhw22XpQb0m7xA3gIAAECb6hoaTNeuXW2PngIwBWWaNFbdmHvvvbeZ8fvHMr/Lcvny5TbSTPbvQgEAAGwJdU2KmydV3ZfqsnQBWmcLJCLq37uPV1JUbCNNfTgAAIB0UhdutIP5N2zYYLsuFYSpG1OZslNOOcX88vrrMj9DNnHiRBthkiEDAADpyMUoypSpKBCTQYMGdXowJoEEZHfdd2/IDZIDAABIN67LUtwwK81FNnTo0OjWzhVYimrGjBneHXfcYftmNUBOv13pJlzTB3b9s67vFgAAIFXUk6cuSwVm6rbs1q2bOeigg8ydd96ZlNgp8D7Dyy+/3NNkawrI9OFdRKrsmYo/QgUAAEgFjXNXfKI4ZMSIEebmm28OPGYCAAAAAAAAAAAAAAAAAAAAAAAAAAAAAAAAAAAAAAAAAAAAAAAAAAAAAAAAAAAAAAAAAAAAAAAAAAAAAAAAAAAAAAAAAAAAAAAAAAAAAAAAAAAAAAAAAAAAAAAAAAAAAAAAAAAAAAAAAAAAAAAAAAAAAAAAAAAAAAAA0pUx/x8inEfv8vPj0QAAAABJRU5ErkJggg==;" parent="fCIdx-GhJk9Z0k1vzJS6-53" vertex="1">
                    <mxGeometry x="5" width="80" height="80" as="geometry"/>
                </mxCell>
                <mxCell id="fCIdx-GhJk9Z0k1vzJS6-52" value="Binders Repository" style="text;html=1;align=center;verticalAlign=middle;whiteSpace=wrap;rounded=0;fontSize=8;" parent="fCIdx-GhJk9Z0k1vzJS6-53" vertex="1">
                    <mxGeometry y="80" width="90" height="14.08" as="geometry"/>
                </mxCell>
                <mxCell id="fCIdx-GhJk9Z0k1vzJS6-54" value="" style="group" parent="1" vertex="1" connectable="0">
                    <mxGeometry x="170" y="276.3" width="90" height="94.07999999999998" as="geometry"/>
                </mxCell>
                <mxCell id="fCIdx-GhJk9Z0k1vzJS6-55" value="" style="shape=image;verticalLabelPosition=bottom;labelBackgroundColor=default;verticalAlign=top;aspect=fixed;imageAspect=0;image=data:image/png,iVBORw0KGgoAAAANSUhEUgAAAmQAAAJkCAYAAAC/ET28AAAAAXNSR0IArs4c6QAAAARnQU1BAACxjwv8YQUAAAAJcEhZcwAALiMAAC4jAXilP3YAAAbXaVRYdFhNTDpjb20uYWRvYmUueG1wAAAAAAA8P3hwYWNrZXQgYmVnaW49Iu+7vyIgaWQ9Ilc1TTBNcENlaGlIenJlU3pOVGN6a2M5ZCI/Pg0KPHg6eG1wbWV0YSB4bWxuczp4PSJhZG9iZTpuczptZXRhLyI+DQogIDxyZGY6UkRGIHhtbG5zOnJkZj0iaHR0cDovL3d3dy53My5vcmcvMTk5OS8wMi8yMi1yZGYtc3ludGF4LW5zIyI+DQogICAgPHJkZjpEZXNjcmlwdGlvbiByZGY6YWJvdXQ9IiIgeG1sbnM6cGhvdG9zaG9wPSJodHRwOi8vbnMuYWRvYmUuY29tL3Bob3Rvc2hvcC8xLjAvIiB4bWxuczpJcHRjNHhtcENvcmU9Imh0dHA6Ly9pcHRjLm9yZy9zdGQvSXB0YzR4bXBDb3JlLzEuMC94bWxucy8iIHhtbG5zOkdldHR5SW1hZ2VzR0lGVD0iaHR0cDovL3htcC5nZXR0eWltYWdlcy5jb20vZ2lmdC8xLjAvIiB4bWxuczpkYz0iaHR0cDovL3B1cmwub3JnL2RjL2VsZW1lbnRzLzEuMS8iIHhtbG5zOnBsdXM9Imh0dHA6Ly9ucy51c2VwbHVzLm9yZy9sZGYveG1wLzEuMC8iIHhtbG5zOmlwdGNFeHQ9Imh0dHA6Ly9pcHRjLm9yZy9zdGQvSXB0YzR4bXBFeHQvMjAwOC0wMi0yOS8iIHhtbG5zOnhtcFJpZ2h0cz0iaHR0cDovL25zLmFkb2JlLmNvbS94YXAvMS4wL3JpZ2h0cy8iIHBob3Rvc2hvcDpDcmVkaXQ9IkdldHR5IEltYWdlcyIgR2V0dHlJbWFnZXNHSUZUOkFzc2V0SUQ9IjE0MDc5MjE2OTkiIHhtcFJpZ2h0czpXZWJTdGF0ZW1lbnQ9Imh0dHBzOi8vd3d3LmlzdG9ja3Bob3RvLmNvbS9sZWdhbC9saWNlbnNlLWFncmVlbWVudD91dG1fbWVkaXVtPW9yZ2FuaWMmYW1wO3V0bV9zb3VyY2U9Z29vZ2xlJmFtcDt1dG1fY2FtcGFpZ249aXB0Y3VybCIgcGx1czpEYXRhTWluaW5nPSJodHRwOi8vbnMudXNlcGx1cy5vcmcvbGRmL3ZvY2FiL0RNSS1QUk9ISUJJVEVELUVYQ0VQVFNFQVJDSEVOR0lORUlOREVYSU5HIj4NCiAgICAgIDxkYzpjcmVhdG9yPg0KICAgICAgICA8cmRmOlNlcT4NCiAgICAgICAgICA8cmRmOmxpPkpEYXduSW5rPC9yZGY6bGk+DQogICAgICAgIDwvcmRmOlNlcT4NCiAgICAgIDwvZGM6Y3JlYXRvcj4NCiAgICAgIDxkYzpkZXNjcmlwdGlvbj4NCiAgICAgICAgPHJkZjpBbHQ+DQogICAgICAgICAgPHJkZjpsaSB4bWw6bGFuZz0ieC1kZWZhdWx0Ij5WZWN0b3IgaWxsdXN0cmF0aW9uIG9mIGEgSHVtYW4gcmVzb3VyY2VzIGljb24gd2l0aCBubyB3aGl0ZSBib3ggYmVsb3cuIEZ1bGx5IGVkaXRhYmxlIHN0cm9rZSBvdXRsaW5lIGZvciBlYXN5IGVkaXRpbmcuIFNpbXBsZSBpY29uIHRoYXQgaW5jbHVkZXMgdmVjdG9yIGVwcyBhbmQgaGlnaCByZXNvbHV0aW9uIGpwZyBpbiBkb3dubG9hZC48L3JkZjpsaT4NCiAgICAgICAgPC9yZGY6QWx0Pg0KICAgICAgPC9kYzpkZXNjcmlwdGlvbj4NCiAgICAgIDxwbHVzOkxpY2Vuc29yPg0KICAgICAgICA8cmRmOlNlcT4NCiAgICAgICAgICA8cmRmOmxpIHJkZjpwYXJzZVR5cGU9IlJlc291cmNlIj4NCiAgICAgICAgICAgIDxwbHVzOkxpY2Vuc29yVVJMPmh0dHBzOi8vd3d3LmlzdG9ja3Bob3RvLmNvbS9waG90by9saWNlbnNlLWdtMTQwNzkyMTY5OS0/dXRtX21lZGl1bT1vcmdhbmljJmFtcDt1dG1fc291cmNlPWdvb2dsZSZhbXA7dXRtX2NhbXBhaWduPWlwdGN1cmw8L3BsdXM6TGljZW5zb3JVUkw+DQogICAgICAgICAgPC9yZGY6bGk+DQogICAgICAgIDwvcmRmOlNlcT4NCiAgICAgIDwvcGx1czpMaWNlbnNvcj4NCiAgICA8L3JkZjpEZXNjcmlwdGlvbj4NCiAgPC9yZGY6UkRGPg0KPC94OnhtcG1ldGE+DQo8P3hwYWNrZXQgZW5kPSJyIj8+opbprQAAZO9JREFUeF7t3QecXFXd//Ez20uy6Z1UQgloUEAEpYgUKSEEUujSWxLpoHSQKgJC6CUiQQwp0vFRikp7/KMUASF003vbbLbP7v3P9+ycfS7D7E6S3Zk75fPmdbh37pTMzJ57z+/+zrlnDAAAAAAAAAAAAAAAAAAAAAAAAAAAAAAAAAAAAAAAAAAAAAAAAAAAAAAAAAAAAAAAAAAAAAAAAAAAAAAAAAAAAAAAAAAAAAAAAAAAAAAAAAAAAAAAAAAAAAAAAAAAAAAAAAAAAAAAAAAAAAAAAAAAAAAAAAAAAAAAAAAAAAAAAAAAAAAAAAAAAAAAAAAAAAAAAAAAAAAAAAAAAAAAAAAAAAAAAAAAAAAAAAAASHuh6BIAAHSi5599zoswKs3Nzba4dQnX1bfebmpqssX/uKZIC+2/37/Udq8x3Hq/u89/f2Nj4zfud+vaLu5+/3Pd/T379jFFRUWmb9++ZvvttzdHjD+SmCGJ+HIBIMs8OfeP3urVq1sbZNHSX6SysvIb2919WtbW1n7jPhV3f0NDQ+t6bJH169e3eZ+W9fUtAYm7HVvae/8qdXV1bd4n/sDDrfvvLygo+No2FT1OtF5SUtK6HltEwUq8+1QkPz/fLt02/3uQirLy1tuxxSr4+vNj7y/Ky29d1zL29bt27WqXbpu/SOz7iy3V9XWmvLzcFBYWmpqaGvv37tevn9lll13MjjvuaC68+CJiiE7ElwkAGWzu7DneK6+8Yt566y2zbNkym+VQoKHGVkuJbWid0tLS1tux92uphtjx3+8eo3/Lrcfep6Uac7fulv7HFBcXt3nfpqzr/cVu998OhVqaOLcU/3peXp5d+p/jX7rgTOK9RluvG3t/W6+fH1m09RoSNi2Pc2Ifm9f8f/e7+/yPURAV+xw/9z6c2MfWNNSbLl26mLKyMvu3rq6uNuFw2P5dtX1jTbXZbrvtzGGHHWbOOOOMr784NhtfIABkoFNOOcV76x//z2axlGlS8KWGU0GKGk23TdoKCPQ4J95jlAFy627p1sUFbG3dr0Zc/Pf7l7EBX+wyNuDyL8UFVBLvce7ziwIMF3C4pTJwjj8YiSfe812G0L/drYv7/H7++0OR9+h/buyyLs7r+5fhBP++At7Y5/iX8d7/15aRoF5BnTKRCvCVMdRSdU7bdVtFn1PZuIMPPtjcevttLU/GZuOLA4AMMnnyZO+pp54yffr0MY31DTaoUMPqGn/XmCogcV1Sjj+YETXYjv8+f1DjX4p/3d/l5fjX/QFRvMe49yr++0W3/fdL7GP8GazNfX2J/Tdi/z1/wOcX7/Ud/7/T1mu79YKYDF0sL/q4tu7P971mvMfEBoSxj4l9/7H3l5aX29dQHXPBq/6mqjcK1vXuN2zYYJ+nuqAMWrdu3czEiRPNdTfd+PUXR0J8YQCQAR566CHvxhtvNFVVVTYYU/dkWUmpzSKpcVTjqobRBSnudnv8GTKJfbw/gxWPPyCKxx8QxHsvsa/f3vuNd19swOm4x+p+t66lf138AWMsfX8uCGnrNVwGUdx97n5xAU9s4OOoy9H/ev51yzeGzC3962VF3+zydevivt+2HuPPoMZ7TGX1RpsBU9e2vkvVFwX/7u9eVVlp66Ieo4yZHqOuTGXQVqxYoaDMTJ06lThjE/FFAUCaO/vss70XXnjBNpQav6OGUY1fbXWNvV/b1UiqaLvLYKjbsj2u4W1LW/e7ACPR/W1lmNz9/i5Dxx+8tLXuxHu+nz/gcPzrsa8Z+3n0XfrFvo67v63Xb2vdKS38Zpewn7vK0om9vyCmCY99Hf/na+91JN795d0qbHeliuqWAjx9p3pd3e7To6dZuXKlrWeql3qeThi0PnDgQLN45XJz+OGHm2nTpn3zj4dv4EsCgDR20kkneU8++aRt5JSNUIOnDITtbmxuCQrUSCr4USOpYE2BimtAnXgBTaJteg0n3mP9jXi8+xM9vy3tPdZ/n/v323q8//1Je6/rHhu79NuUz5Dovfhf1z8oX2Kfq4DML/b+UFPb329b76Ot7Y7/fg3qV93yB576m+ox9nHhlgyo6p4eo22ui9M+rrjQXmn73e9+11xwwQVm7Nix7f/jOY4vBwDS1G7f2dlzA6hdgKWGzzV6Wtd210jqfhXdVtdSvAyVPyCIFyT4uYAu3v3a5l6/rftdieW2uYZe4j3OHxw4/se199qyua8f+5hEt93rx3ttbfP/+xLvcX6J7hf/Y9r7/mP5P6tbVz1xYr8L3VYdUkDm6oGCfX83twJGf8Cm19N7UdG66qimyVi6dKnp2bOnufTSS81PTzrx6/8QWvHFAEAamjRpkvfRe++3NoIu6HJFjZ6yZb1797ZjeDSgWsGbGkcVBW1qLBOJbYj91KC2d39sIBD7WP+/H+91/GPMHP/jEt0f7zU35353laET+/i2vj/3OH9AI7HPj/f+xT3OH9zEPlf8F11I7GPcPGzx6LH697Vsq8TWqdii+11g5eqgvhPXJb56/bqvBWMKEHWfHqO6oecpQzZo0CD7GH3f559/vjl7yuRvflgQkAFAujnvvPO8Bx980PTr0cs2eP7GUQ2dtqnRK+/axTZ4GzdutNsUmGnpMhT+gMnf0LrbrsF2t/3r4gKK2Pvcunv9ePdpqSCxrfv82nqMGnTH3Rfvfv82/2MUAMTe59bFBRNtPUYBb+x97rYker4bwxe7vb11d1v884j57/M/RmLvc+uqD+62giUVty7+ZexjVHThiII+fc+ufmm7tin47zdggK1/qmvqUtfj1q5da4O1/v3728fosS6w1UTECs7OPfdcc+rpp339Q4CADADSyQMPPOBdc801tlHTxKGukXRBlrjGU1kLNXLKSqgBFM3Qr/v1czdr1qyx6+Keo6Xb5rhtscX/+Ngiie7v3r173Ptc0fOlrW3u+RL7b4m7ytG/3V/cTPXutnsNt03fm7svtoimcJB496uMGXd4ywNzwGOP/M77y1/+Yt5//30bKOrKywWLFpkhQ4bY9VWrVtn62KNHDxvIL1++3H7/CsA+//xzG9Dp55f0fNXVTz77NGe+u03FF4KscenFl3h//etf7VmxBj/rrGzdunXRe4HO15zX0nU4bNgws99++5kzzzyzw8fUrbfe2lO9VUNWX90ydsxlolxAoW0qeZE6rkZPDaTK6NGjzYQJE8zJp57CsR1J89uHp3uvvvqq+fDDD20gpgytMmQKYFVHlRnTcVgZMwXVuq0gTY9RPdVjNMP/X156kXrqw5eBjHfNFVd6M2fOtN0jOmPWWZoaMO30sWMwgM7k5efZhkaNjGbJ/9a3vmVOO+20Lb6aTFdUanoLZRnUXVZRUmbrs+taVJ1WUf3WttqmRlvHDzroIGXWOJ4j5c4751zvz3/+s62vOgl2vxChQfzaL7RdXZ2qpwrcVH+VUVNX5uSpUzTQn3obxReBjHbHLbd6v//9780nn3xiRowYYSclVKpcjZUGO2t8A5AsVfW19qzfZa2UCdh///3N448/vkXH1l69ennqAlIjptKlqGXMjgIwV9SgqcFTqejd0/zjH//gOI7AjTnkUO+dd96xJxO6KnPx4sX2GKwATdkyBWEKytTFruOzrr4sLC4yb7/9NvU3qqWzHshQd911l224Bg8ebLsnv/rqK7vjK02+ZMmS6KOA5FCD47oLXdfM66+/bh577LGvX364CQ444ABPXT6qx8r2qmGz3ZKRAEyZXwVgjm4rECQYQ7p4/k8vhE488UT7U0pffvmlGTBggF1XEKZ6rcBMt7WfKHumCWX1uBtuuGGz95Vsxc6MjLXN1iM9jbHR2Zi6i3TW5dLmOgjYS8KjPz0CJIMyVqprGkivsVwqujJNs5P/9nePbNbxdWD/AZ4yvHpNNV6q115j2Hbz9O7bxz5m7fr1prEpbHbZZRfz4ouMv0H6ue6667yHH37YDuIPNTa1DvjXCYayY6rjOtHQcVrHaF188q/336MuR/AlICONHLG1Z7MGkSqsIEzjbJRJcDu6xiyoYWtojj8PENAZlMlS4KSrxvTbfWqElA0YNWqUeWL2rE0+vt5w3fXe/fffb5+v+qu6qxOMwlCercu19XV2W2Ek+GvymnXVGsdupK3rr7/eu+eee0xpfqENyLSf6GRF2V83PYaoO17l1ttvM+MmjM/5Ok2XJTLOQQf+xFPqW2dbGpugIEwNmbJk2tldpkxZBrfDUyjJKOp+UT3T9BIKpJTNUrZM3TWbQ4Oi9Xqquwq8/AP3ta4TDjViWj/44IOjzwLS0xVXXBHaa6+9bB1WFkwnLarfqr9u31Hd1km1jtUvvfRS9Jm5jbMsZJSDf3KQp3lsNCWABu+HIwGZAjF1G7kMmcbzaGfX9rrI/UCyqL5VVFTY8Yq6jF+TYioou+OOO8xRxxy9ycfXQQMG2nE0rh67jK9+K1CBWFmXcnvy0X/gQPOPt/4fx21khG+P2sHTPqEsmU5YFHypy1LHZ9XxspJSe+HV8K1HmDep12TIkDlOPOGnnn4TTdkwDQjVWZfrnlSWQju+Gi01aiq6X4+lUJJV1LBobIyCp/nz59sz/zFjxmxWMHbH7b/xVFcV3LmZ0FWfVbeVQdB2vb6yDQcccED0WUD622GHHVqPwwrAVLdVn0Xb7MlG5MRZWWWQIUOGuPzSy7znnnvOXko9fPhwe3WOLpsO19Xbsy+dZWnn7tWrl93xdVtBWagw8W/5AVtKQZO6zzU+RsHUj370I3PfA/dv1nH1+GOP89577z3bBa9sm04qNOZG6xrULxpDpqBswZLFHLORMTQtkQb4KwhTvXbd8bqt4EzHbO03ulDlq4ULcr5us3Mj7T14/wPe7bffbgeEagZ+ZSK+/e1v2+BMPy1jBz3XtvyostLhCsa0/MEPfkBAhqRShkxn99///vfNjjvuaMYdecRmH1P33nMvT3VZmQQ37tFlxJrqG2xdXrt+nf01gH/8658cs5Ex/vT0s94ll1xij88uA+zGQ6q+a13HbS9Sq79cMJ+ALLoE0tIffv+4N23aNDNv3jyb/VImQo3gggULzMCBA01jbZ3NhGngqHZsNWZaP+yww8y9Dz9I/Uba23XnXTxlfIcOHWrHoinjqys1dWKhEw516YSbm8yee+5pfjvjUeo0MsrWg4d6yvgqm6yLYJQpU1F3vE48FKxpgtgv5v835+s2Y8iQ1q6+/AqzduUq07dnL5PX7JmaDVW2m3JAn752qQxYZfVGU1RWan9XcP3GKrPHXnsSjCFjrFy6zPTr1dusX73G9KzoZqdyUd1WMKZGSw2WLhTQDzMDmUbH5fJuFaawtMRU1daYpsiRWT85FjYtVxErUNOJNAjIkMZ+/OMfe9pRXXHjEJQBU6pbXFZM3TvKlGkQ6ey5c9i7kTGUJVAR1XHVZVFDpXquoEzTueg2gOxFQIa0dPjhh9uBzn7uLEoNltY1BkFTXKgbUylxNVyvvv4awRgyiuqyAjJ30qH6reICMtVzFf3cDIDsRUCGtHPKKad4L774or2KMtI82StwNIYmlJ9nikqK7XiD/MICkxf9WSQ1YsogXH/99fY2kCl+fdPNnuq36rnJC9nBzVpqNn4tXZCmwf4nnXYqJxtAFiMgQ1o5//zzvTfeeMNeUabsgDIHbhJBNU7KGmibbquRUnZMkw3ecMMN5rDDx9JgIaO88847ti4r6HJdl6rjqvMq7spLrQPIbgRkSCsvvPCCbZw0kFnyQ3km5JnW0hxuMg119aaxvqFlvaHBXHjhhWbiUZMIxpBxvvjsc1vHvabmSOX2IgfkyElHXr69raLgTFMEbLXVVtFnAMhWBGRIK8qCaaC+ZuTXIH2XOVDDpPuUTVDReDGNqfnJT35iLrrkYoIxZCTNradpLlzXpKvvbhyZ6L7dd9/drgPIXgRkSBtz5871dHm/umdGjhxpf7BZwZcoILMTCEYH9Kursn///ube++8jGENGmjVrlqf67X4uyQVkWnf1XLdV70ePHh19FoBsRUCGtDFhwoSQm8lZ48I0fqahucmUdCk3G+tqTU1DvV3XcuT225kXXvoLwRgy1p///GdbxzWNi5u5XNkxjRnTutR7TaYpP2R+esrJ1HVkJNVv9WjoxEJDUXRyraLhJjr51n2uvuc6AjKkFWXGNIWFfi5GM/NrZufly5eb3r172yspP/vsM/sDy3Of/CMNFDLaihUromttU4ZMVxsDmUq/NKGeD9Vl9Wq4XhD1cug+9YQoOPvTs8+19NHnMAIypJWzzz7bBmX6KRk1WMqUKThbtWqVWblypdl3333NE7NnEYwh4y1atCi61jY1XNtss030FpB5NBZY9ViBmLJhygCrS15ZYW1X5kw9IwrKch0BGdLKuHHjQmeccYb50Y9+ZLNiCsj0m5XKlOnHwl965WWCMWSFtWvX2nnH2ivKKuhHy4FMpW7KiooKG3Bt2LDB9nQoMFOApt9rVQZY4yXHTRgfqfG5Lee/AKSvGTNmeEsWLbbjDZQlGHfkEdRXZIU777zTu+mmm0x5cUl0S3waQ3n33Xfrlyuo+8hIXcu7eMOHDzeVlZX2tq4qVmZMGbK6jdV2SpcFixaaVevWEpBFlwCAFDn11FO9l156yRQl6KQo7dbVfPjhhxynkbH69+3nadB+t27dbI+HqNtSPSCNtXU2c1ZbX2eWr16V8/WcLksASLFIkGXHziTSt2/f6BqQmcaPH2+vnFdGTFcRa92NIdNtZcsmTZoUfXRu48wLAFJs4MCBngYy54Wbo1vi+85uu2p+Po7TyGg7jtrBzjGpsWMaL6aiq+nzmj07PviDTz6mjkeQIQOAFHr8sd97+lmkcEOjyStqmWuvLtxovPw805wXMvVNYZNfXGTn3hs7dmz0WUDm+mjex6FRo0bZX6ZQVkwnIzJ6150Jxnz4IgAghaZOnmLHj6nL0v1wuK6m1MUr6srRupseYOHiRRyjkVWuu/aXnoKyy6+8grodgy8EAFJot12/52lws4qbtVzjadSNI2qsFJhpqoD3P/yAYzSQI9jZASCFtt92O09ZMffD4pqXST8vIwrElB3TlWc77bSTefb551J+jH7gvvu9d955x/z3v/81S5YssRk7f9F7dPzryD6JLjzRSYTGgGmuSE1tse2225opP5tKXLGF+OKQ1Z7545MdajHUAIkaHlf82zQwtSN0xZH4X9uti7IlHeEa+i2l57v3E68osOgIPT/e66qIW24pTTzZES5bFa+I+/u1pSby/WmmcnU/qnHT+t///nf76xP66Rj9LJimA9CAZ92vv78LyE444QRz/Y03pOQYfdVll3tvvPGGWbBggX2vbuC1xvrE+9wum4fs5v7ebXFjwbQfu+53TXGhuq06PmHSJHP+hRdQWTYRX1QOe/LJJ73X/vo3+xNFCxcuNKtXr279+Qo1DCpqQNxOGXtQFjUeHRG7w8fe7owGvyPcAcf/uf3rHf1RXH9w55b+11d3Vkd09PO7f7+t99dRLuAR/+u6ZUc//6ZMLdEeF3jEvje3nlDk8+k1ampq7HPcPuV+Ekx/H3VNagZzZcsU4Okz63F33HGHGTsuuRPCHnbwIZ5+kmzZsmV2RnW9N2Xs9HfRe/OfMPi5gK2j9QuZTfVU9VX7meqDO55pm8qGyImG6s7o0aPNKaecYsZPnEDM0Q6+nBx02WWXeS+//LJtBEryCmxjoTN011ioYVCgoYNyWxkgd4De5IapDbENpmsAnY4e8DvaILsDjMT7rP77t0R7GTD9e+3dvyk6GtC4AN2J/Q46+v26gL6tehT772+ujv59Yuvj5n7+2saG1kBLP6SspQIxzVqu19LnUwCk28qU6bb+Tb3u519+kbTj8znnnOM99dRTpndFd5vZUBH9u/r3NaZNRe9V7zP2c+sxKokyhMhssfU/lv7+Okap6LGqJ9qm47b2vfJuFbYtUdCvOq6fARs3bpy58uqriD3i4EvJIRdffLH3zDPP2EBMgZcOuAWR9ko7kzuj0U6lHUn3aceKlwHz76QdDRj8g5n9S7fe0QY1tiHZXP7PKrG3O7vBF/+2jr5+RyX7/fn/PvH+rY7Wr84S771Jos8fNp4NyNQYaekCHQVnWur5WlfXaq9evWxgpG3KzH7y2afx/9EOmDVrljdt2jTz0Ucf2ZnSayv/78ICF4y5AEwl9raKo/vS5e+D5Eh0Qqz2wQVf4gIzp9Fr6WlR3VI91xAI1fWRI0eaAw44wKSqSz5T8GXkgLtvv8N79NFH7VmKGgXtIO6gv65qg92BVNyBWQddBWP+gMx/IBZ327/zbYnY1/G/nl0Pt39A0NxN7Yl9353B/5qd9fkl9jvQ0h3otlRnvb94760z+D9fvNfu6N+vo99fe/++7utoQKL9TVloZRHUaOlkqWfPnmbnnXc2T8ye1TlfctT5557nzZw50/5bysa5iwr0feuzaH9XkCh6jPZ9r7ElA6L3pseo8fU30h39+yC9Jarfmi9P9UF1R1SXVFyQVpSX/7U2RfXIBXEKzorKSs1VV11ljv/pCZ1a1zMVX0KW+9mZZ3vvv/+++eqrr1rHh2hH0HgR7WxlFV1bdyjtQNpx/A2ia9D82+Ldv6W0g4r/Nf1CTe2/flOCGuxef0vp87X12aWjn18Hq7bo3+pol11HG8zY+hCrM15f2vs3OqK973dTxH6+jn7eWHo9N0xA++HatWtt5urss882Z0+Z3Glfyhmnne69+eabdniCgi3VW5eNE+0neh8qek86PtgxZfktWXMVbfc/XqWj9R/pLVF91/FXdcDVAxe8a6k601Tf8LWATNtVx3Sfgv/Bw4eZd99910yYMMFMf+S3yTkIZJCc/wKymX7A+G9/eal1XIoO+tohdFs7iM5UNMYllnYo7URauqv09Hy39K+rEekI91pO7AEgP0H7py6h9ujzdoT7fKn4/PEOfi5DuaUSHVATce+vrddJ9uv7v58t4c7ct1S89+V/Tx19f667UvukMmO6wEb76dLlyzr2wj5Tzp7szZkzx+4L+jd0QYH2a2XJFJyJ6rHegxtL5jJk2nv0GfU9uIZXt3V8UOnoCQPSW6L63RipN6oHtq5E6pfqh+qEgi3VqcJQS4Am2hdVj1zbovXlq1eZESNG2OlV1I35j7f+X6fV+0yU0x8+m40ZM8Z77733TGlhUevOooOtdhbtZNpmD6jRsxYV7SDakVy2TPSY9nZKPa8j9O/4Gz3/uhRGd+a2hKPvsy2d8f5i+b+PRAesRPyv3973EBT/9+fek/+9dfTzx4r93B39+3X0+bHvp7M/r/Y3vUcFSP369bPB2dChQ83rb77RKf/QkeOO8DSVhTJv2udV39Qtqs+hgExXVitjoeELCsL0eVV0v95XY+SY4T6ztrsTEN1n7492cSI7uWCqLQrIxF839BzVNZuJjbQl7jV0v3uM6pRKU+R5qkMaP6l6qTr185//3Jxx1pmdu6NliJz80NlOV1FOnz7ddk821NTag612Cnfw1I6iHUNdEgoH3MHXHXjdzuKKuIYpdqnndYR7fT/32pIf534/7dDtUUDZWfS+Yj9/ogNWR7kDWFBi/77+v01niP0+Y3W0fnX0/SqAcXU03rKjAYm6ELfbbjuzePFim7nq37+/bZBOPPmk9iv+Jrj55pu9+++9z9ZR1SOdjOn7dJlynXgpQ6f3oHFs+qw6Nrh9xjWguq3teo6+T/9JREf/Pkhv/r91PAq8tB+o6LEqqjNaqq7o+K37VE9c/XH3S2HkZEDtkJIFqot6rOrr0UcfnZMD/nPuA2e7u+66y7vuuuvsxHzaWcI1LV2Oajh0ANY2VXztFDoIV/TsYbfrfu0k2hlUtPNo53BdGI6/gdO6HtMR+jf9r6H1r71mgkH9ibosO8q9l9jP3Vn8r+X+Lf+yow1eR9+r/28R+/7EHVi3lOqhxL62/9/oiI5+fn/91NIVd7uj1qxZYzNjugpz0KBB5uCDDzbX3XB9h19YV1NeeumlkQ/wf4P19X5d5kLfuwI0NYaa2kJFlKnTd6aTOZV99v2RfY6yaHqeXqMz6z/SW6K/9ZJFi+3FYvpVB/9cdmp/VH/WrlzVuo+rHqlt0T6lbbY+lpXa7K3WNXZS9W/p0qX2JGXSpEnm0ssv65wDQYbIqQ+bC3bddVfvk08+MQMGDLBnvv169LIHY+0oOgBrh1DGTDuAdoyNdbWtXZQ64GqnURCgxyoYcwdh0dIFau52Rw/Obsd0xb2+iugqr/Y057Vfhd3rbCl/g+x/b63vrxMafHGvGfv5YwPizaW/d0e4z9fW++uoRJ+/o9+vGoaOiH1//iIdzcD26dPHfkZ1U956+22d86VGjBs3zv6Aec/uPextvU/t2/o8avS036luKBBz8xDqfQwZMsT86Ec/MndMu7PT3gtyy88vvsTOc/nBBx+Yb20/ymZ+XVuionrmjvs6odY2JQlUB9Vlr31CtxctWmRuufXX5uSTT86ZushOl0UmTpzo6WdZ1AipktufY2lqGUSp2zoAa2dQAKaidU0boYPy4MGDzfbbb29/i6xv3762YVRQJq6R1PNVdFvl0MPGUH+ANPOLX/zCzjW21VZbmfraOruviju5cEG6bqtoP9c+f+CBB5pf33Yr+zQ6zQH77OspC6wMsKgdUp1zWTMFZKqPrutfWTXdp5MGtVslZaVm3rx5BGTILE8/+ZSnn6bQ2YXOeFWZ3VmwlqroCtB0QNZgXv2Gnq64OuzwsebWWzkIA9li5LDhXuQUqqWr0mu2J1zKUui2jg9q7NRA6gehFyxaaL773e+aE088UYXjAJLipJNO8l577TWbKVP7ozZJ8+B1L+tiryweNWqUbZ/0E37qulf7ZYfUVFTY5//74//kRN1kB8wSB//kIE99+LpqSpVeXZY6M1H3pM6QVen1a/y6kkVnIzp7vuKKK8yYsYdRB4AscfbpZ9iGr7pqo+2irAs32qVOxJQJU1ZcAZm6JufNm2d+uNee5sUXX+QYgKSbOXOm99hjjxld/S8KzPRLMW44jbop1VapfXJZMxUFZUcfe4y58tprsr6esiNmgTmzZnvHHHOM2WWXXezVWu5MWP3xrouie/fu5tNPPzVbb7217dLM9flegGw0fPAQz2bHG8O2e6i+qWV8qE7MRJky3a+Mubb9+4P3OQ4gpU4//XQ7vlHtlGkI24yYLgpQJrdHjx5m1apV9kpg3a/kgupqUUmx+XDex1lfV7lmOQv87ne/swGYuiF1hYsqtoIxretgrDNkpX91FYsOyARjQPY5/dTTPHX7qGifV7eQMg46KdMwBp2YKQuhkzM1evYqTCDFHnroodAFF1xg6+W6yvWmurbGdOvR3YTy88za9etMs8aVFRZEopOW4TXK6Kq354Jzzu3YFT4ZgIAsC7z99tt2PIhSv+qS0JmxUr06E9bBV5clq1IrQDv55JOjzwKQTdRVqXGhbvyojgWi44HWdUzQugK2MWPGmKOOOZoTMwTinHPOCd1000127JjGjYlOFpQR08mEujB1MqGibcqYKauW7QjIMtwvLvm5pwqsMwgFXwq8XH+8DsqqzDoYKy2sbNk1v7yWgzCQZaZPn+4pC65gTGNutN8rA+GyZDoe6NigbiA95tHHZnAcQKCOP/740CknnWzKS8tM5br1piAv33TrWmGKCgpNbXWNCUXOJ5RkUPumOqv5ym647vqszpIRkGW4V155xR5sddWUzn51ENZB111dqa5LjRtTwHbhhRdGnwUgm/zpT3+yGXBlwRSMuRMynYy5YQtuUL9+yBlIB5PPOyd05JFH2gyYG9+oequl6q3qs+qy6q3aNGWBsxlnSRlu2JCh9oxBlVfcQVlF666iq0IvWrKYvzeQhUaPHu3VbKw2och+rvFho7bb3k6smVfUMv+gjgXarvnG5n36CccBpJU9d9vd01W/6uVRQkHjoF1vj52bzGu246B79u5t/vPxR1lbf8mQZbAbbrjBK4jE1CpFefm2aGZ73daPiuc1e6amrtZW5lNOOzX6LADZpqpyg80s6Mf2SyMN2JrK9TYY00+PlRQUmnCkYSspKjL7779/9BlA+vj+Xj805d0qTEO40Q7udxeluastVdQVr+TC448/nrXdlgRkGWz+/PnRtbZp/IjSv9dey9gxIBs99ccnPQVjoiEL2udFWXNlx7RU0ZCGkSNH2vuAdLL77rvbXhxlxrRUVkxBmNZFdVp1Wz0/Gn6TrQjIMtjHH38cXWubKrGmxACQnfRjzG7Igmifdw2ZG5Oj28o4nHv+eZyYIe1MnDjR1kvVUdVXjXl0AZmK6rQLyDTJebYiIMtgOhB7kWrcXglHKvXo0aOjzwCQbexxINpwKTBTwyVuqe2i7h8gXfmDMDc7gDJjqtMKxNxt97uY2YiALEM9++yznippIqrMe++9d/QWgGyjjIG6JsV1XYrrrhQFZ+oGAtKVfkFGA/mV1dVSXewKwBSIqa1T3XYZtGxFQJahdEWKneYicvLbXlHlPumkk1pOlQFkHU387MbYiJZqxLR0GTPdVoMHpCs3VYtOJFxxWTFRXVabp23ZioAsQ2n8mDsrbo8GSQLIXgrIFHTpeKDGy2UV/NkxresqNSBdueBLQZmb9kKZMSUVXCCmuqxuzWxFQJahYgfytkVnHQCy14YNG+wyXkCmBswFZBwLkM40bkx1101srHnHFHwpINP4MlE93pShOpmKgCxDLV682B5oE9luu+2iawCykTIJGluj36hU4+UGRJeUlNgGTtkFTbC5zTbbRJ8BpB+dUCjY6tGjh1m9erXN6LpfmFBg5k4uVJ+zFQFZhtKZwqZkyPRjwwCylxoxHQsUfKnB0lLU9eO6gdSIMf0NkN4IyDKUzhg25WoT/ag4gOzljgUuEHNL/wmbMmdnTD6bi3uANEZAlqF0ENbZrxc5xLZXBgwYEH0GgGzz24enewrAXCZMgZnr2tE2UZcPgPRHQJahNqW7Uo477rhIWAYgG+niHjfgWdyAZxeUiRssDSC9sZdmoNmzZ9tTXx1k48095i8Aspe7uMefIRMXjGmpbUx/A6Q/ArIMVFNTYw+0mzIPGYDstWjRIhtwuUH94pbarmOECgP6gfRHQJaB1C2hgMydBQPITZoeQMcDBV82Yx45JriATEGabmtAv6YSAJDeCMgy0PKly0xxfoEx4ez9TS8Aia1ZsdKUFRWbkoJC01TfYJf2uBAppYVFpibcYGqbGs12O+4QfQaAdEVABgBZys3e37t37+gWAOmKgAwAspTrxhw8eHB0C4B0RUCW4eLNPeYvALLTjBkzvHj7vL+4cWQTJkyI3AKQzgjIACADLVu2LLrWNg34z+bf/gOyCQFZhos395i/AMhOmhQ23j7vL5qfrLy8PPoMAOmMNHYGuu7aX3qPPfqovdRdB932fLFwPn9jIAsdeeSR3gdvvxu9FV9j5AAxbNgw8+qrrwZ+HDjnnHO8yPswGzdutMeuqqoqU1ZWFr0XQXBTpLRlt912M3PmzElJ3fneLrt6q1asMKWlpaa+tu5r763Ja7YXqHihkNl3vx+bhx9+OCvbNTJkAJCB1qxZE11rm+YgC3qW/meeecY79NBDvZkzZ5qFCxfablQ1tl27drXvjxJc0fjC9sorr7yioMybNm1aglN/dAYCMgDIQJsyhkyD+pUhC9KN199g5n30ceTNeKYgL9+UFpeY5nBLdj+/yaMEWAqaI0F7O6WipMysWrLM3HPntOhfE8lEQAYAGSgcDkfX2qZunp49e0Zvpd4f58z19GsC6prs1auX/QknZcgqKytNcXFx9FFIV7ogRGMQVY9uuPaXZMmSjIAMADKQAptE1DW41VZbRW+l3ocffmjq6+ttURCmIFJdZWrgNyWgRLD0d6qurrbj/l5++eXoViQLAVmGc/MNtVUAZJ+nn37a0xifePu8vyhoO/PMMyNrwVCDrkxYUVGR7T5VUCbK2jU0NMR9z5T0Kao/+tvp76i/H5KLgAwAMsySJUsSXiEnupoxSBq/5ianHThwoG3clW3REulPAVlJSYnttvzOd74T3YpkISDLcG6+obYKgOxj5yDTlXBx9nl/CTrwOeHEn4b0O5qLFy+201xoSgPNjaaG3gZqcd4zJX2Kspv628md99wdsitIGgIyAMgwusIyvAljsLp37x5dC84JJ5xgRo8e3dpdqYyLAjIFlEhvuhijf//+Zvz48dEtSCYCMgDIMApuFNQkUlFREV0LzjnnnRu6+OKLzfDhw1u7WRVMcpVl+tMFGMcff7y59obriZ5TgC85AzFTP5DbRo8e7akLsNAL2a4/dQOKAh7blRnNPu1/yEHmnnvuSatjwKxZszyNI5NNGQeH5NH3r7rjrz/uKlitT5o0KWV1h5n6CcgyEgEZkNtGjRplg5qSvILWxlRiuwEnHHu0uemmmzgGIO0RkNFlCQAZxw2Kd1MRuKyYy3a4+wYMGGDvB5D+CMgynJsvpq0CIPso6FIGodlEAjDt53mR/0WK1pVN0HaVoUOHtjwBQNojIAOADHL//ffbSWH1szauu9J1Vfpvq4vn8MMP57QMyBAEZBnOP2dMvAIgu2heKJchyzMhW1r392bPLvUj3kUFhS1PAJARCMgAIINoDjKNIbMX9UTHjok/O6Yr5ZhWAsgsBGQAkEHcHGThcLg1GBMFZCquu1JBGYDMQUAGABnky08/M12KSkxBszFh45mCkmJTWb3RNGtQf36eqQs3mrUbKs23vrNT9BkAMgEBGQBkEGXG3Bgyf1ZMtM1lx9LhZ5MAbDoCMgDIIO4nk1xApvnGtO62qegKTOYgAzILAVmG07xD7RUA2UUBmAIxUWZM63YW8+g2lzEbNGiQvQ0gMxCQAUCGeOyR39moS0GXC7y0VFbMzc7vArbjTjieUzIggxCQZTg3/1BbBUD2WLJkySZnyABkFgIyAMgQS5cutYP6pa0xZEx5AWQmAjIAyBDr1q37xlWWCshcRswFZBrUDyCzEJBlmNlPzPIWLlxoSsrKTH30aisA2euF5563fZFzZs32Fi1ZoqjLdOvV09Q2NtjASzP268rLoqIiU19fb2pra81OOzEHGZBpGGiQZI8/9ntv3rx55u233zbz5883DQ0NtjtBZ7au66E9OvPVAVZnvl27drXbNmzYYA/CpaWlpiDBn1ATR7aHsSZA+tJ+vn79etO/f39TUlJijyEKwnr37m3WrFljKioqbDCmY4qKjil6ztixY83d997Dzo2M8b1ddvVWrVhh27X62jrb5jlNXnPLOMlIe7Xvfj82Dz/8cFbWbXbYJDnjjDO8N9980/7Ir85aVUQHTQVBOogqOEv0e3OqhHqcGyei56rooKwz4rqN1dFHxqfZuwFkpi5duthuSu37aqi07+uYoRM6BWQuQ6b7dTxwJ3mnnnqqufzKK9j5kTEIyOiy7HSHHHSwN2zIUO+1v79qli9dZhYtWtQ67kMHzrq6OlukrKzMHljbK3qsKqIOwi4gE21fvXr11+Yci1cSifdvUiiU9ChVVVWt+35NTY2prq42K1eutIP7daImruFyz9Ft5iADMs8mNNnYFD87e7L3zDPPtGbAdLDUTNl5kdsbN260JRwJylzXgoIz19XQHpcNU4ZMr6mDrbou3Gs0RIO7tjRHl23RARxAelJApp9A0nFAxw8dC7SUbt262eEL/vt0jFCm7IuvvuTYjoxChoyArMOenD3He+SRR8x//vMfU15eboMsBUoKmHSwrK2vt2e4yobpgKkASAdPPUZBlra1x53xip6n2y5LptulhUV2vS10WQKZS/u+G7ag/V3HEi01BELHGB0/dL9uu4BMJ2yff/kFOz4yCgEZXZYdMn36dO+X11xrPvrwP2bdmrVmw/pKU9Glq52Qdf3adaZPr9727LZHjx42INOBtLKy0p71qrL17Nkz+kptUxeFuioUwKmiamC/Drg6+GqZiAK49gqA9KXjhAvGXAOloEwnf7oduw9rW6KTPADpKT+6xGb69a9/7d18882mekOVDbZ69eplD5oaaKsDpgbjrl271pR1KbfjvdRlqYOntutgquyYgrNEXZa6ikpcRk0HZ71ea3YtsmxPc4KrLAGkL+33bmiDMgTa97VN66JjitZ17HHHEp24rVi58lp7A8gQgwYOvKamutq2a02R+ux6gsSL/GdPSCLbho8Ybt59992srN+ktbfAuT87x3v++eftgVEHQWWwFGSpIukSdVUcBWnaXlbUMiBXAZQOrFrqOW6bv9JtCf0bypQpCBQFbC5Ys1dhJhhjBiBz1TY1tk6Ho8H+Gsx/3nnn6SpLju3IKHRZ0mW52S77xaXe3LlzWwMgzRGmwEdBkLJgCrbUTanKo+5GBUQa36FgTPQ8NyhfFJB1pCjjptfSGbI7c1bRv6mrO+M9h0KhZEfRhUM6Bi1btsxm6Q888ECCMSBDseNuhpmP/8G76qqrbKCjoEsHQjeOywVcCoaUpdJSY8SWLl5ss2UKxNS9oMBJtK4gTsFcRygTpkBQ70Xr6uLUe9K/o2BQB20A2Wnh0iV2jOp2221nDjnkEPPzn/+cHR4ZiQwZAdlm2enboz1dOdmvX7/WH/lV5VFQpa5DBVjqunSZMZ2xlkTuU8Ck+4YPH2723HNPs+uuu5rDjhjXKd/9808/42msmhuPpn9z0rHH8HcFAGQMAjICsk121MRJ3rvvvmsDLWWiVFmU5VKwpZ8x0XYFYsqKqeKsWrXKZq30kydHHHGEufmWX/FdAwAQBwEZY8g2yYP3P+D985//tBVEwZiupBStawyXprFQl6WyYxrUv2DBAju246STTjKffv5ZiGAMAAC0h4BsE0ybNs2OA1N3pYKwPn362ADMTcKorkuN1VKXobomhwwZYo477jhz513TCMQAAEBCBGQJ3HPX3Z6uXlQXZN++fe2l5QrOlC1TQKbtuuxc27SuYO2iiy4yF11yMcEYAADYJARkCTx03/0m3zOmR9cKU7VuvelW3sVsXF9pt2mOsfKukds11caLhF8N4UZz4cUXmZNOOZlgDAAAbDICsnY8/fTTNjumbkhRt6QyY24OINHAfnVVanD/pZdeqnFjBGMAAGCzEJC1QxPAaqyYgjIFXgrGXEAmbi4xTcK6zTbbmMsvv5xgDAAAbDYCsna89dZbprEpbC+5tb8JmRcyofxIQBYp6qJU0aW4CtJOPfXU6LMAAAA2DwFZO3RVpTJgrssylsua7bDDDub4448nOwYAALYIAVkbrr/+ek8/d5RnQraYZu8bJRRZqDvzoIMOij4LAABg8xGQteGNN96wg/Vjx4y54mhW4YsuuojsGAAA2GIEZG34/PPPbfbLBWPiBvGruKBM844BAAB0BAFZGxSMacC+P/hScBZ7peXee+9tlwAAYMu4Hqmamhrb9qqN9fdOubHc/iRJtiEga4MqgAvE2qMfDwcAAMm1qe1ypiIga0NbV1bGGjZsWHQNAABsCZcR82fFXPDlthOQ5TD7x4/UjfbKmDFjIv8HAABbKjYgE7XBsbc3NVmSiQjI4pgzZ47nonEAAJBcscGYn9tOQJaD9FNIGmAommusvQIAADrGXSznD8pcUoSALIfpCksXkAEAgOSLDcgcf0CWzT1XBGRx6A+uy24BAEDyxQvG1BbH25atCMjiKCkpsXOhKIUKAACSS12RrogCL/VU6bZLkrj5ybIVEQcAAEDACMgAAAACRkDWDqVJ48095i8AAAAdRUAGAAAQMAKydtirPqLzjbVVAAAAOoqADAAAIGAEZAAAAAEjIIujqTFsSoqK6ZIEAAApkZMB2UMPPOg989TTbYZbXbt2NUVFRXZyWAAAkHmuvPwK7/lnn/NeeO75jEiv5ExANvPxP3h7/XBPr7y0zLvqqqvMueeea7R+9ZVXfeMP1dDQYCorK+2M/QAAIHNMmDDBGzZsmDd37lxz1llnmalTp5rxRxyZ9kFZTgRkt/36Vu+KK64wH330kdlqq61M9+7dbbC17bbbmgceeMCcfOJJX/tD1dbW2oCsS5cucece8xcAAJAejjjiCO/vf/+77eFSO798+XL7E0xvvPGG2W3X76V1UJb1AdnDDz7kPf/882bZsmU2EKuoqDBVVVX2j7RhwwZTVlZmXn75ZfP0k0+1/qHUXdmjRw9TXV0d3QIAANLZMccc47333numvLzcjBw50qxatcqMHj3a3u7Xr5+ZN2+eGXPIoWkblGV1QPbkk096v/zlL83ixYvNwIEDTWNjo1m9erUNzNztwsJC+yPi06dPjz6r5UdO+/TpYwO32HnHYgsAAAjeO++8Y9t1teEffvihzZKtX7/eLFiwwCZh1O4vWrTIxBuqlA6yOiC77bbbTLdu3WwXpP4wipIVgK1cudKsWbPG3laAVlxcbP9IjsaQ1dfX20wZAABIf2rrS0tLbTZMSZUBAwbYdnzEiBEmPz/f/hzi2rVrzSOPPGLmzJqddkFZ1gZkY8eO9f773//asWAKvHTlpIIydUOq21JZMgVdvXr1sjPy67ajP6iiao0hAwAA6a9nz542yaJsWFNTk23/RbGA4gAFZYoBNFRJCZt0k5UBma6meOdfb5suZeU2IlYKU8GX/hj6oyiduXHjRvsHU8ZM/cy777579NnGbtdgQKa9AAAgM6jNHjVqlA3ENBSpvLjENNbWmR5dK0xTfYOp2VBl+vXqbQpDeWbFkqVpN54s6wKy4489zlN/set2VJel/kgKynSlhdZ1n7JfipLnz59vvv3tb5ubb/lV6zWT7rF0WQIAkBnOO+88s3DhQtsjpqFI4XDYBmZaVzJGS8UAGh+uZIwyZ9defU3aBGVZFZBpEri//e1vNl2pP4i6IvXHUJZMS90W/VH0x9BVlkOGDDFHHnmk3e64x+p5AAAg/U2ZMiW088472+BLXZMKyJRgcYkYtfui7Uq4aDz5c889Z/44Z25aNPZZE5DdPe0u77777rN9yPqyNQ5MXZQKupQN05evrkj9oZT9clNa/OxnPzPnnn/e12YU03Ndhk1zjbVXAABAeogEWKGhQ4fawfvFpSWmqKTYNDaFTU1drWk2nt2WX1hgt2lokh539913R58drKwIyDQL/y233GIGDx5sx4Yp4FIgJnV1dfZLV7ZLAZmyXxozpgzY+PHjzeSpU74RVuk+Xa3homkAAJAZ1Oul3i+1++oR09AlLZVo0TYla5RwUU+a2vovvvjCTDl7cuBZsqwIyH7zm9+09gsrPamxYfriXd9xOBxuyXZF/hC6XwHXbrvtZqbdfVfcHJceq+fodeLNPeYvAAAgfUyePDk0adIkU1dTa9atWWtMs2dKiort7drqGlNUUGgK8wtskka9Z0riqOvyjtt/E2irnvEB2X77/thbsWKFGTRokPnqq69sJKyAS92OokhYWTJ94bq6UlmvMWPGmCdmz2qzw1GPc12cAAAgs1x77bWhPffc08YD6pbU0hUlakSJG6277ZqfLEgZHZAddNBB3r/+9S/Tu3dv2w35ne98x2bK1G2p7JgyXfrCFWAp26WlUpSPPjaj3dFfCtr0R1LGDQAAZJ6Zf5wTGjZsmE3KKCZQHKBkjdbdOHJ3xaWKkjs/OeDAwLJkGRuQHT3pKO/j/3xk+vbsZdatWm3KiortHCPF+QV2PT/ylWqpgfdlXcrNmnVrTfeePcw/3/5Xu8GYaOBfQ7jRlJS1ZNkAAEDmOeKoiaZn/75mTeX6SMQTsgP6NU+ZxpYrTujTo6eprdpoQk3NZmDffmbeh/8xp55wYiBBWUYGZGedcaan36lSitEN2lOXpKJgZci0TfdpvJhm5des+7r68oYbboi+AgAAyHYXXHBBaN9997XDmTQMSXGChiS54UxuXLnGjeu2iuKLu25L/XiyjAvINInbq6++an8eQV+iolxdJaEvUalIpSRdV6WmuNB9+uLPOussM27cuITZMQAAkD2mT58e0vRX6pZUrKDATHGBEjlK4Gi7ujHdIP+lS5cGMp4sowKyhx540Hv88cfNunXr7Lgx0dwieQWRL7ao0HY1KiVZWl5mCouLTG19S8bsjDPO0Ay+mx2M6Q+lLs/2CgAASG8arqRxY/rBcXVZKiDTnGQanqS2XHFEuLnJDlXS9lVrVptjjjkmpVmyjAnInn/2OU9djhqw36NHDzuIX9kwDcjTQH11TWpd3ZPqwlTR+sEHH2yuueYaQicAAHLY5MmTbUKnb9++NpZQ0kW9aOFwy08saaneNWXMFF/86U9/UnYtZUFZxgRkF1xwgV261KIbM9avT19TuW69nWukW9cKO9fI8qXL7Lwje/1wT/Poo49ucTCmLtF4c4/5CwAASH+XXnlFaJtttrHZMXVPek3NkSAoZAry8u3cZFo2NUaCsrp6276r+/K1116LPjv5MiIgO+jAn3iKavUl9unTx843NnLkSJsRU7+wIl0VRbT2yonI4/R7Vk8+/yyZMQAAYL3411dCvXr1soP8lSFT3KCYQYP7lehxv+yjTJkep3gjVdI+IBs39nDvnXfeae2G/PLLL+1PInz22Wd2HJkG32nZv39/242pwE3zkR1zzDHRVwAAAGgxdepUG4Cpi1LBmIIvjStT1kwXByow0316jHriUiWtA7KjJk7y3v3nv+xcY93Ku5jG2jozoE9fk9fs2fnGNqxdZ0LFhaa5IM+sqao0DabZ9Bs8yPz5ry+HDj78sC3OjumPoyBPGbhQYYHx8vNMbWODqWmot7dVGr1mYwryo88AAABbSoFRbX29KSopse3r2g2RACnSiqvtLSgqMqHI/Uq4hBsao8/YckcePSl03Mkn2sniNQRKWTEt1fZrqJICMo0tW7x4sb0oMFXSNiD76fEneB999JHp3r27jVA1QF/TWShiVTpRUawG8iuK1XaNLVO57LLLoq+w5TRdxpIlS8xWW21l/2D6wyh1qYsJNJOv/j2tq3IAAICOUUCkNly9YBqKtNNOO7UGSmqHFSSpzXczLHTU1VdfHdp+++1tTKG2XDGF/j1NqaU2f+uttzaHH364Of3001M29CktA7KfX3yJ7aZU8KMvS1+O/hi6mlJ0W5GsivqBNbWFXHjhheboo4/u8Jc3fvz4kII+va5LWSqdKQrEVGlEV2oAAICO0WB7DaJXO6/eqffff98OQ1Iwpq5EJWXULitQ6iwv/v2voYMOOdhOm1Xf2GCnzFJpbAqbquqNZvbs2Skdh552AdmD9z/gPfXUU2bDhg02Eq6urbHzg3Sp6GqKSortF6W5QrRNRcGZMlpjx47dornG2rL//vvb8WmKmPXD5QrMFKBpxn9tnz9/vtlvv/2ijwYAAFtKPwSubku1t0rAaL6wfv362aIkiNpg/S7l+Rde0KlB0l333Ru68cYbzY9//GPb46Y2XmPMPvr0k5QGY5Lyf7A9c2bN9m6//XabPly0aJEZOnSoqY8EXEpZuv5dfWEKkjTAX5Hz8tWrzMSJE80DDzzQ6Z9ln3328T7/9DObFVN0rn9P0buCxb322svM+ePctPr+AADIVBecd773/PPPmy+++MJmzNQ7pfZWbe+IESPMcccdZy665OKsbXfT6oNtv+12noIupScVdCltqR8IV3SsTJj+KOqiVKTsuhD3OWA/88QTTyTtc+y37489jSdTxXA/1RQJ1Mz9D3Z+AAgAQC67/NLLvNdff90sWLDAtreKCb71rW/ZSd4nT52S1e1u2ny4vffcy1NWTAPqNIWFMmCaW6y5odFmpfSTB0pjKlu1bNkyG7Tttttu5pn/eSEln+HZp5/x9G8eMf5IAjEAAJLoybl/tAkaDUk67PCxOdHupsWH3OuHe3qaV0x9twq6FJSpi1ITtmmqCwVha9eutQP6dPXF8uXL7Vxjf33jNYIjAACQ8QIf1H/4wYd61ZUbTFFevqnbWG0DsC4lpfa2smOi7kpd7qoBfwrWdtxxR3PKKafY+wAAADJdoBmmyy67zHvphf+xA+YVdOmSV2XINEZM1G2p7aL7VNRtqOyZujUHDx5sFi5dYu8HAADoLOqRUwyimGT48OHmwAMPNMcef1zS4qbAArK77rrL+9WvfmUKvZC9clJBlgIw9xtSrstSWTEN7lcgponb3AB/jS/T83r06ZxJ4gAAAJyVK1fa+UbdLA+aikvDpR7+7fSkxE6BBGQPPfSQd+edd9orJQuib0GBl4ItBVkuIFOApqyYAjC3TVc6ijJpur8yEqwBAAB0Jg2V0uwOikFcb52SQ2PGjDGPPPq7To+fAgnIDjzwQO+1116z84w01NTaD6jMmAIu0RcgCtL0M0XarnUtFbCpuICsPtq9CQAA0FkUl2jKKy0Vb+inHPULQsqUXXvttWb8xAmdGkMFMqh/4cKFdhZeTQDrNTWb5nCT/cHQxvoGe7sgL98WrRcXFpn8UORtNnu2FBUUmpKiYnvfxg1kxwAAQOdTz5xmf9Ak9UoIafotLXVx4T//+c/oozpPIBmy7bff3s7ppbFh5YUt48ZURJkwFd1WpkzjxjSgTl+MtqlbU9kxres1Gpqb7PMAAAA6i4ZM6ScTNVRK023pZ5x69eplL0TUTz09PvMPnRpDBRaQKUs2cuRIU72u0gZYijoVgLnuSheQKRBzV1/qdmz3ppcf+MwdAAAgyyg5pLHu9ne1q6ttgki07ZBDDjG//d0jmR+QbTtia0/dky7IEgVauq1IVJkzfXCtu8ALAACgsxSVldrfytSvASjuUA+cZnBQLGJnefBakkMKzJQc0jgy9djp/j322MM8OvPxTo2hAo929CH93ZQKwPR7lfoNK3dFJQAAQGfSOHY37ZaCMY0X0zQX6pbU7ViKUZIp8AyZok39VqWuplRwJvbqyejVlXkF+XYbAABAp4nEGAqyFIusWrXKBmMK0hSM2diktOxrGTINn3KzPCQjQxZ4QGbyQvbDu0tL9SUoINOH3mGHHezvWAIAAHSmcHTIlGIQjRHTWLHXX3/d9s4pCKurqWk3IJvxhywMyNxVlOqqVGCmgExdlqeeeqr52fnnBfIeAQBAbhlzyKHeRx99ZAOvokiMksqALPAxZIX5kQ8cnYtM625OsqbGsBkxbHj0UQAAAMnlfhnIjmP3TLuls6XFJYxKFyri1BWXGjumpS4rdT9VAAAAkGyKOzR+XVmxVAs8IFMXpT64gjL12yow0yB/bVNXJgAAQCooM6b4QxPCplrgAZkiUfXJaqkATPOPaT4Q9dUGEaECAIDc1BSJQ0oKCk1R3jfjj2RPxZUWXZYAAADpTAP8k4mADAAAIGCBB2ReqP0CAACQKi4TFi8m8ZfORoYMAAAgYIEHZPHm9vAXAACAVHGD9+PFJP7S2ciQAQAABIyADAAAIGAEZAAAAAkwDxkAAEDAmIcMAAAgywUekMWb28NfAAAAUoV5yAAAAHJU4AFZvLk9/AUAACBVmIcMAAAgRxGQAQAABIyADAAAIAHmIQMAAAgY85ABAABkucADsnhze/gLAABAqjAPGQAAQI4KPCCLN7eHvwAAAKQK85ABAADkKAIyAACAgBGQAQAAJMA8ZAAAAAFjHjIAAIAsF3hAFm9uD38BAABIFeYhAwAAyFGBB2Tx5vbwFwAAgFRhHjIAAIAcRUAGAAAQMAIyAACABJiHDAAAIGDMQwYAAJDlAg/I4s3t4S8AAACpwjxkAAAAOSrwgCze3B7+AgAAkCrMQwYAAJCjCMgAAAACRkAGAACQAPOQAQAABIx5yAAAALJc4AFZvLk9/AUAACBVmIcMAAAgRwUekMWb28NfAAAAUoV5yAAAAHIUARkAAEDAkjAsLbFtR2ztNdY3mIKCAjt4zg2gKywsNE1NTbZo/brrrjOTjj82kPcIbI4//P5x79NPPzWLFy8269atM9XV1aahocEU5xdEHwFkn7y8vK8dw3U7Pz/fHtu1Pmzk1mbIkCHm3PPP4ziOjLDPD/f0VixbbsLhsL2tuq06bY/nxcWmsbHR1u899tjDPDrz8U6t1wRkwBa47777vHfeece89Y//Z+rr601tba2tt9pxVaS5udkU5bWsA9nIHb9dURDmgjItq2prbAOmfaFLly5m2223NXvvvbe5/MorOK4jLbUXkBUVFdntyQrI6LIENsPUqVO9HXbYwdPJwuuvv27q6upaTyDKy8tto1NaWmpvq0HS4FAKJVuL+JcuMFMApv2ib9++tnTv3t0GZu+//7554IEHzA7bj/K+t8uu3o033piEodFAZgo8IHPzebRVgKDNmTXbO+Lwcd5222zr/eV//myaGsOmqKDQbFhfaRudcOSMSVmympoas3HjRttdqdva7q/LFEq2lfzCgtaSV5BvSyg/0qzkRe6MlAULFpi1a9fa/ahbt26mZ8+epqSkxJ7IrFq1yvx+xmNmt12/5/3mttsJzJA2dFJhlzH1PbZ0tiS8ZGL+Lstm036X5VHH0WWJ4Pz02OO8hQsXmkWLFtluSVG9VTZMDcyqNWtsNkBFGQKltnW/lrpdXVVlnwNko9hhJ27psmaFxcWtJy2u61L36fiu51ZVVppevXrZk5gRI0aY8847z4ybMJ5jPgKjLsvlS5fZemsDr0idbqvLcsYfGEMGJN3MmTO9++67zyxbtNg2JGpEtDOqG1K3lQFTPS2NBGaO6rEaHO2wKrq/Z0W36L1AbnDHc2lobvramDJx3ZlalkT2Kbd/KZOm7v7TTjvNXHvD9Rz3EYggx5ARkAExLrroIu+pp56y3Y8leS1Xi7lgSzumrrTRUrfXb6yy66rLbsyYq9Mqec3/1zgB2UbHanEZMbd0x/T84qLWAKx1WzQ402PzI5vU0GlbRUWFqaysNEuWLDE/+clPzLN//hPHfqQcAVl0RyUgQ9AmT57sPfvss3Y82IABA0x9VbXdCVVHNe5FNAZGt9WFWVRWatfjNTq24SEgQxZT46TAyl/E7QeNXrNdaruCMH+WTI9RQKb9Rve7fUhZMrUN2r++WryQ4z9SioAsuvMSkCFIhx06xk5loSvC1HBs2LDB1kVdOakGQ0Ga6qoCMjUeyqB1KSn9WmOi52mnFVuXow0SkM1cIOaWTklRsVmzZo3db3r37m2P+ZqnT41a165dbSMnyjrrudru9p/169ebsrIyO65syvnn0g4gJdoLyJiHjIAMKXD6qad5//u//2uDLNU/0Zm6Goeqqiq7M7rb2lEVgKn+NkXqsbZph3VBmeqzHqNxZuVdu9jXArKR6rnLfCmgUt13x3DtDzrOb7XVVvZ+XRyjk5o+ffrYkxyt6+RGmTDdr+dqX9PrqPtSbYBef9CgQebICePNlHPPoS1A0pEhixQhIEMQzpn6M2/mzJm2PqohUFCmOqkzeF2ar6spdVWldkQ1IlqqfmrnrK2utjurq8M6o+/fv7/t7tRrraustNuBbKR9QcGU9gEFUjYIa2y0jZeO44sWLLBBlrZrH9I+pgDMNWqF+QX2fu1L2nd0n56rQM21B7rdo1dPc9VVV5kjJ02kPUBS5XRAxrQXCNIvLvm595e//MXMnz/fdlWq3qnxEI0ZUyPhJn9Vulr3u6ss9bhePXqYnXfe2ey///7mp6ecTF0F4vjFRRd7L7/8slm5cqU9UVEDpyEBCrwUkOm2Aja1BSra3zQVRnFhkc1M19bX2Z9gevXNN9jHkFQKyIKa9oKZ+pGznnjiCW/27Nlm2bJldsJKBVzKgCnQ0g6ooEsBmaMMgJv4ddSoUebss882//lkXkg7JcEY0Labb/116O1/vxe65777TP+BA83ipUsjjV1LRk37nYoaPO1bagB1W42fGj7th+ri/OSTT8yEI8e3nL0DWSjwgCwU2b3aK0Cy3HHHHbZB0EFfjYDW1f2iMyCdHelMXpfg6yxeZ+86k1eANn78ePPyX18JXXXN1QRhwGY47PCxIe079z/4gBkwaKBZv3adqa7aaJrDTbb7Ms+ETLih0d7Wr2HoxEj7o6bD6NGjh3nrrbfMLbfcQsuApNLJt13GxCOxpbORIUNOuvbaa72PP/7YBlrqEtFBX12RWtfOqLN1revMXF2WOnPXDyNfdNFF5t777yMQAzpg4sSJoX/84x+hww47zA7a1/6mkyGN29RSt3WCpKITImXJFJxpPOe9994bfRUguxCQISfNmDHDXu21evXq6BZjAzI1BioKwjTAWI2AujF32mkn88b/vhk68+yzCMaATvLwjN+FNAmsaDiAuIsDtO8pc62TJU2ZoSyZZvPX+tixY5OQnwCCRUCGnDP+8HFeoReJqxrCrZffKxvmBhJr7IoaAm1rbAqbYSOGmz/9+X8IxIAkuPHWW0JjJxxpTEG+KS0vM5VVG1ovrtE+qRMl0+zZ7syKsnKzdP5Cs+DzL6PPBlLHdWUmCwEZcs6XX35ps2AKujR+TF0i6iJRd4jb4TRWzI0Ze/vttwnGgCS6++67Q4ceeqjd57RP+rNjWmp/dXSipMllr/rFZWTJkFKqi8lEQIac8uubbvZ0VaXGpCj40gFfSzUEOivXbQVn2vF0pdeUKVOizwSQTBqbqX1QXZKaEkMZMgVn4saTaf90U9G88MIL9j4gWwQekKnnqL0CdKbnnnvOnm278WHhyAFeB3pRIObGr6ibZJ999jFTp06lFgIpcvPNN9uxYpqGRvtoiX4rNrIHauiAlvWNDZFWK2S7NletWW2mT59OlgydzmXCXBzSVulsZMiQUzQBrM7Clf1S4KWgTDTFhc661X2porP0h6Y/nIRdDkBbDhl7WOjAAw+0wZgyYe4ESQ2kuiq11H6q/Vf76dy5c6PPBDJf4AFZvLk9/AXoLJdcdLGng7y6KzVeTFkwHeCVGdNAft3WwV/dJHvuuWf0WQBS6cHfTg/piku7r9bWmfxQXqShCpnS4hI7c7+2aZ4ytQ8ffPBB9FlA53FjiWPjkdjS2ciQIWe89tprNiOmna11h4ssFYjpai4FZW5s2X0P3E92DAjIEUccYafB0MmSMmM6UdK+qeEGbsC/MmXhcNg888wzSWgagdQjIEPOWLFihR28r8lgNb2FMmHq+tBSB3j9lqWWCswABOfehx8M6SRJJ0cKyBR4ad9VYKbbbsiB1t94443os4DMRkCGnPD88897Orgr+NJBXGfaOqBvWLvOdO/S1TQ1Npqqyko7L9nRxx4TfRaAoFT07mnHe+rkSVkxnUhpH1bWTEVBmcr7778ffQaQXKp/yURAhpygy+h1xq0MmM62tS4K0LTubitQGzFihF0HEBz9pFIiCswUsAGpoPYjmQjIkBNWrVr1tYBMxWXM3HYFY9o2YcIExo8BAdNvxyai8Z/r16+P3gIyW+ABmRdp+torQGdwv1mpgEtdlQrA3AB/t66AzGXKAARr8ODBcdsEfxH99BnQmVwmLF6d85fORoYMOUEDgl0AJloqANOOp3VlynQ/ARmQHjQ1TSLss8gmgQdk8eb28BegM+iSeR28XdekW3cBmWip7QCCpwH98doEf2F/RTK0tglx6py/dDYyZMgJ6qZ0XZIuO+bWxU0Kq9m/AQRPAVki2mfdPgxkOgIy5AwduHUAd+sKyBSYia7WIiAD0semZL+0D7vxPkCmIyBDTlDgFQ6H7aSvCsY0y7ebAFYHdY1X0TYXsAEIlrLWidhuTTJkSJFk1zUCMgAAgASSnY0lIAMAAAhY4AFZ7LwesQUAkJvitQn+AiSDy4TFq3P+0tnIkAEAAAQs8IAs3twe/gIAyE3x2gR/AZLBDd6PV+f8pbORIQMAAAgYARkAAEDACMgAAAASYB4yAACAgDEPGQAAQJYLPCCLN7eHvwAAclO8NsFfgGRgHjIAAIAcFXhAFm9uD38BAOSmeG2CvwDJwDxkAAAAOYqADAAAIGAEZAAAAAkwDxkAAEDAmIcMAAAgywUekMWb28NfAAC5KV6b4C9AMjAPGQAAQI4KPCCLN7eHvwAAclO8NsFfgGRgHjIAAIAcRUAGAAAQMAIyAEDaycujeUJ6YR4yAEDOSfacT8DmYh4yAEDOISBDrgk8IIs3t4e/AAByjwKyeG2CvwDJwDxkAABEkSFDrgk8IIs3t4e/AAByT3Nzc9w2wV+AZGAeMgAAosiQIdcQkAEAAASMgAw5oaKiws5r1NjYaBoaGky3bt1MXV2dqW8Km9KuXUxlVVVkb8gzK1asiD4DQJDWr18fXWub9unq6uroLSC5mIcM6AQKyAoLC+0BXMuamhpTXFxsd7BwONy6vaSkJPoMAEF69913o2ttU7em9m0gFZLdjU5AhpwwdOhQuywoKDD5+fk2O+YCNAVk2ubKww8+xOAVIGAfffRRdK19Q4YMia4BmS3wgMw/p0e8AnSG448/PqQgTAFYU1OTDcZ0FZdu66xHS91Wd+bf//736LMABEVdkfHaBH/RPrvDDjtEnwF0DpcJi1fn/KWzkSFDzigqKrJdlAq6unTpYurr621w5gIyrWvbJ598En0GgCDccsstnoKtRLQv77jjjtFbQGYLPCCLN7eHvwCdxZ1JuwyZlipuoKZrAHRmPvuJWdQ+ICAvvfSSPTmK1yb4i06ypkyZkoRcBXIZ85ABSXbAAQfYHc2NIdNSNK5MwZjLlOkxs2bNsvcBSK0ZM2Z4X3zxhd0XExkwYEB0Dch8BGTIGVN+NjUSa4VsdkxZMC3dQH4XkLny8ssvR58FIJXmzJljr4LWsIJEBg4cGF0DMh8BGXJKv0EDTVPImKb8kAlHan++Z0xjbZ0pKSg0RXn5toTr6s2gfv3NTqN2TEJSGkBbfnXTzd6C/843ZSWlJtzQaBqam0xeUaExBfmmLtxouvXqaSqrN5qw8Uyj12zmzp1LdyVSxnVlJgsBGXLK1KlT7YSTPXv2tGfhrotStFRRtkxjyzSJ7Kknn0JQBqTIE088YZYvX273z8rKSjtX4MaNG1sz2QsXLrSTOmuYwdZbbx19FpAa6j1JJgIy5JSJEyeGBg8ebA/yOqg7LhgT7XThcNhewfXKK6+Ye+++h6AMSLLdd/u+V1VVZSdnXrRokenTp489OdJ+qf1RS51AKUjTGNBx48ZFnwlkh8ADMv+cHvEK0NlOPvlks2HDBlNWVmaavObW0mwicVdepNJFita1rby83Nx2223m9ltvIygDkmSfvfb2li1bZgMw7XMKvHRiVFtba7p27WpPjsKRoGzQoEE2s929e3dzznnn0kIgKVwmLDYeiS2djQwZcs75558f2nnnnW1Qph1PjYAb1O/Owl1Xph6jbNojjzxibrn5VwRlQCf7we57eNrH1q5da/dBBV/6OSQNLdB+KcqKaRoM13157LHH2u1ANgk8IIud1yO2AMmgLJnGieWHIsGXiZzqNEcqW6RoXdtcUYPQq1cv+6PjN998szn7zLOolUAn0PQWe++5l7dmzRrz4Ycfmu9973tm3bp19iSotLTUnhApi63bypopWFMWTY+77IrLk5CfAFqo7tmlLxaJVzobGTLkpGOOOSakMSiaWFJjydwOqIO+iqNL79VgaCCxLrF/8sknza477+I9cN/9SdgdgdwwZcoU75JLLjEffPCBzYx997vfNfPmzbP7mIKwlStXmh49etipacLR8ZwaW6bJnWfOeoJgDFmJgAw566GHHgq5ucgUkPmDMS2VHVu9erXRRQBqEBYvXmz69+9vu1Kuvvpqc8B++3s6y7dPAJDQT3/6U2/EiBHeU089ZQMu7VsKwLRv6aRH+5tOkPr27WvXtQ8qW6Z9To8bM2ZM9JWA7ENAhpx25bXXmK49upslK5abLt272fmO1lVtMIWlJSa/uMhUlJWbdasijYQJmT49eto5y0oLW7Z//MGH5rJfXGp2+vZob/wRR3rXXHW198c5cwnQgKh775jmnXPWZG+v7+/hDRu4lfe3v7xk8sLNpryw2NRt2Gi7IxWAuekttBRN3GyvpmyoN90i+2coP8/svOsu5sqrryI7hsC4npRkCaRybztia6+xvsHuiP6shP/3BbV+3XXXmUnHH8sOiKS66oorPf12ni6118BhnZ3rSi41EL26dbf102XQdLm95idTY6Grv1atW2vvU1122TY9Thk1PU5jX4Bs5fYL0YUwrv6rm1H1X/uP9hkV0T6i52g/07bi8jL7HNHjlRHTbXeVZdduFWb+/Plm//3313AB2gIk3T4/3NNbsWy5rcOieqg6qWO6hrhou473e+yxh3l05uOdWicJyICIKy+/wnvooYdst4l2PNVJNRzKiIkCMHWdqNHQ2bsaDAVkmvVfjYiKq8futr1oINrYANlIdV713NV91Xd/QFWzocre1vFcx3t39bJoqYBs6dKldn/RcAA9VuPHdJ9OjFauXmVGjx5tXnzxRdoBpEROB2Sa78ntzPECsqOOIyBDaky7407v1ltvtetqEBSA1dXU2MZCtDOqXqq+KjDTDtoUrbviGiN/w+OeC2QjV8f9QZm2ufpfGjmR0XaXMVPRdu1LKquiF8xon3FZNA3e1+M0U/9uu3/fvPDCC7QBSBkFZMuXLmup05Ga115ANuMPBGRA0ujqyV/96le2/mlQcd/eve3OqC4WzSLuMmNaatLKkrKy6DP/L1ugBkrrrl4D2Ur7hqP6Hlv3Q5Gl9hU9ToGYuABOy/zIfqYGTic/CsQUhGlcma623HHHHc3suXM4/iOlggzImIcM8Dnz7LNCX83/b0gNhGYFX7l8hamu2mjnJyspKrZLnUw0NYbtPGVqQDTWzI0tsztxZAdW4+MaIQolW4tOVNRAtQZgkW1uaUtks9cUCcAi+4uW2n8K8wtMkX7MP1L0m5XaZzT1heYg037UO3ISdMQRRxCMITCt9dgXi8QrnS2QCs8YMmSCqZOneO+89U/bWCgbpiBNdVaNkIIvmx0oaBkvox1Y9Vh1V2f+uu0yA0C20r6gOu72AXdCotsquiJZ+4OCNhe4abuO79qXVqxZbYYMGWL3J/2o+Le+9S3NUWaOnDCe4z4CwaD+SBECMqSbGQ//1nvmmWfMm2++aeukfkNPwZl2Tl1BWdvYYBsYcV0xorqtooYGyFYuGBMXeLkGTKW+usbuNyrissii+wtKiluGBvTtqx/+N9fdcD3HewSKgIyADGnukUce8ebOnWv+/e9/twZjqqOhxqbWbJiKyxJop1XRjgxkK9V5/zFcS+0DoqUXWVUQpnVdqayl9h89Tsd/ZZjHjh2rH/DnOI+00F5Apjqs+pysgIyJYYFNcPLJJ4d0tde0adPMUUcdZce56PJ8zR6uzIBmEtdt/cySu1rMf8JBoWRjUePkL+5ExJ2UKADTYH135aSb/FU/laSM2Oeffx4iGEOmUJ1PpkB2BDJkyAZz5871XnjmWdvloh891tVhorMpNUQK1NQIAblC9d5fGiJBmfYDdfXrqskf/OAHZuo5P+OYjrSV012WTHuBbPP4ozM8XTGmbIDmWAKylYIuxwVhrute5ZQzTuf4jYwS5LQXgewsBGQAACDdBBmQMQ8ZAABAlMv8xotJ/KWzMagfAAAgYARkAAAAASMgAwAASMB1ZSYLARkAAEAC7gLEZCEgAwAACFjgAZm9rLSdAgAAkCouExYvJvGXzkaGDAAAIGCBB2Tx5vbwFwAAgFRhHjIAAIAcRUAGAAAQMAIyAACABJiHDAAAIGDMQwYAAJDlAg/I4s3t4S8AAACpwjxkAAAAOSrwgCze3B7+AgAAkCrMQwYAAJCjCMgAAAACRkAGAACQAPOQAQAABIx5yAAAALJc4AFZvLk9/AUAACBVmIcMAAAgRwUekMWb28NfAAAAUoV5yAAAAHIUARkAAEDACMgAAAASYB4yAACAgDEPGQAAQJYLPCCLN7eHvwAAAKQK85ABAADkqMADsnhze/gLAABAqjAPGQAAQI4iIAMAAAgYARkAAEACzEMGAAAQMOYhAwAAyHKBB2Tx5vbwFwAAgFRhHjIAAIAcFXhAFm9uD38BAABIFeYhAwAAyFEEZAAAAAEjIAMAAEiAecgAAAACxjxkAAAAWS7wgCze3B7+AgAAkCrMQwYAAJCjAg/I4s3t4S8AAACpwjxkAAAAOYqADAAAIGAEZAAAAAkwDxkAAEDAmIcMAAAgywUekMWb28NfAAAAUoV5yAAAAHJU4AFZvLk9/AUAACBVmIcMAAAgRxGQAQAABIyADAAAIAHmIQMAAAgY85ABAABkucADsnhze/gLAABAqjAPGQAAQI4KPCCLN7eHvwAAAKQK85ABAADkKAIyAACAgBGQAQAAJMA8ZAAAAAFjHjIAAIAsF3hAFm9uD38BAABIFeYhAwAAyFGBB2Tx5vbwFwAAgFRhHjIAAIAcRUAGAAAQMAIyAACABJiHDAAAIGDMQwYAAJDlAg/I4s3t4S8AAACpwjxkAAAAOSrwgCze3B7+AgAAkCrMQwYAAJCjCMgAAAACRkAGAACQAPOQAQAABIx5yAAAALJc4AFZvLk9/AUAACBVmIcMAAAgRwUekMWb28NfAAAAUoV5yAAAAHIUARkAAEDACMgAAAASYB4yAACAgDEPGQAAQJYLPCCLN7eHvwAAAKQK85ABAADkqMADsnhze/gLAABAqjAPGQAAQI4iIAMAAAgYARkAAEACzEMGAAAQMOYhAwAAyHKBB2Tx5vbwFwAAgFRhHjIAAIAcFXhAFm9uD38BAABIFeYhAwAAyFEEZAAAAAEjIAMAAEiAecgAAAACxjxkAAAAWS7wgCze3B7+AgAAkCrMQwYAAJCjAg/I4s3t4S8AAACpwjxkAAAAOYqADAAAIGAEZAAAAAkwDxkAAEDAmIcMAAAgywUekMWb28NfAAAAUoV5yAAAAHJU4AFZvLk9/AUAACBVmIcMAAAgRxGQAQAABIyADAAAIAHmIQMAAAgY85ABAABkucADsnhze/gLAABAqjAPGQAAQI4KPCCLN7eHvwAAAKQK85ABAADkKAIyAACAgBGQAQAAJMA8ZAAAAAFjHjIAAIAsF3hAFm9uD38BAABIFeYhAwAAyFGBB2Tx5vbwFwAAgFRhHjIAAIAcRUAGAAAQMAIyAACABJiHDAAAIGDMQwYAAJDlAg/I4s3t4S8AAACpwjxkAAAAOSrwgCze3B7+AgAAkCrMQwYAAJCjCMgAAAACRkAGAACQAPOQAQAABIx5yAAAALJc4AFZvLk9/AUAACBVmIcMAAAgRwUekMWb28NfAAAAUoV5yAAAAHIUARkAAEDACMgAAAASYB4yAACAgDEPGQAAQJYLPCCLN7eHvwAAAKQK85ABAADkqMADsnhze/gLAABAqjAPGQAAQI4iIAMAAAgYARkAAEACzEMGAAAQMOYhAwAAyHKBB2Tx5vbwFwAAgFRhHjIAAIAcFXhAFm9uD38BAABIFeYhAwAAyFEEZAAAAAELPCDLz8+3A+iam5tNXl6eve3oNgAAQCo0NTWZcDgcN/7I+nnIFIy5oKympsbU1tZG7zGmvr4+ugYAAJBcLjmkwCxW1s9DVldX1xqU6UsoKCgwxcXFtpAhAwAAqdK9e3dTUlISvZVawWfIQsY0eZGItCDflHUpNwVFhaauod7U1kcCteRmBwEAAFpVV1ebtWvX2h47N99YW6WzBR6QlZeX26VLDzY2NprKykr7pfjHkwEAACSTeuZKS0vN4MGDo1tSJ/CALM+ETHO4ydTX1pmGunp7u0tZuenWtcJUdOkafRQAAEByaeB+VVWVWblyZdy5x/yls6XFGDKNG1M2rKGhwa736NHD3vfVV1/ZJQAAQLL16tXL9O7dO5AeuiT0gia27Yitvcb6luBLQVhFRYVdqs9Wg/mVLvzyyy/NAQccYNbXbIw+CwAAoHM0NoVN94puZv369cZrajbbbL21efHFF01ZSWnr7A/uokPFKEVFRXZKDMUue+yxh3l05uOdGkMFEpBt1X+AV1xYZD8oV1ICAIB0k1dUaKfi0hh3JY6UNFLCSLd333138/s/dG5AFkg0pCyY5hhj0D4AAEhHShq5IVXKjOmiQy21PRmTxAYSkCnCJDMGAADSlQKwwsJCG5BpwlgFYS52SUYME0iX5chhw22XpQb0m7xA3gIAAECb6hoaTNeuXW2PngIwBWWaNFbdmHvvvbeZ8fvHMr/Lcvny5TbSTPbvQgEAAGwJdU2KmydV3ZfqsnQBWmcLJCLq37uPV1JUbCNNfTgAAIB0UhdutIP5N2zYYLsuFYSpG1OZslNOOcX88vrrMj9DNnHiRBthkiEDAADpyMUoypSpKBCTQYMGdXowJoEEZHfdd2/IDZIDAABIN67LUtwwK81FNnTo0OjWzhVYimrGjBneHXfcYftmNUBOv13pJlzTB3b9s67vFgAAIFXUk6cuSwVm6rbs1q2bOeigg8ydd96ZlNgp8D7Dyy+/3NNkawrI9OFdRKrsmYo/QgUAAEgFjXNXfKI4ZMSIEebmm28OPGYCAAAAAAAAAAAAAAAAAAAAAAAAAAAAAAAAAAAAAAAAAAAAAAAAAAAAAAAAAAAAAAAAAAAAAAAAAAAAAAAAAAAAAAAAAAAAAAAAAAAAAAAAAAAAAAAAAAAAAAAAAAAAAAAAAAAAAAAAAAAAAAAAAAAAAAAAAAAAAAAA0pUx/x8inEfv8vPj0QAAAABJRU5ErkJggg==;" parent="fCIdx-GhJk9Z0k1vzJS6-54" vertex="1">
                    <mxGeometry x="5" width="80" height="80" as="geometry"/>
                </mxCell>
                <mxCell id="fCIdx-GhJk9Z0k1vzJS6-56" value="Logs Repository" style="text;html=1;align=center;verticalAlign=middle;whiteSpace=wrap;rounded=0;fontSize=8;" parent="fCIdx-GhJk9Z0k1vzJS6-54" vertex="1">
                    <mxGeometry y="80" width="90" height="14.08" as="geometry"/>
                </mxCell>
                <mxCell id="fCIdx-GhJk9Z0k1vzJS6-57" value="" style="endArrow=classic;startArrow=classic;html=1;rounded=0;" parent="1" source="fCIdx-GhJk9Z0k1vzJS6-27" target="fCIdx-GhJk9Z0k1vzJS6-51" edge="1">
                    <mxGeometry width="50" height="50" relative="1" as="geometry">
                        <mxPoint x="200" y="600" as="sourcePoint"/>
                        <mxPoint x="250" y="550" as="targetPoint"/>
                    </mxGeometry>
                </mxCell>
                <mxCell id="fCIdx-GhJk9Z0k1vzJS6-58" value="" style="endArrow=classic;startArrow=classic;html=1;rounded=0;" parent="1" source="fCIdx-GhJk9Z0k1vzJS6-27" target="fCIdx-GhJk9Z0k1vzJS6-55" edge="1">
                    <mxGeometry width="50" height="50" relative="1" as="geometry">
                        <mxPoint x="341" y="346" as="sourcePoint"/>
                        <mxPoint x="265" y="412" as="targetPoint"/>
                    </mxGeometry>
                </mxCell>
                <mxCell id="fCIdx-GhJk9Z0k1vzJS6-59" value="" style="endArrow=classic;startArrow=classic;html=1;rounded=0;" parent="1" source="fCIdx-GhJk9Z0k1vzJS6-3" target="fCIdx-GhJk9Z0k1vzJS6-55" edge="1">
                    <mxGeometry width="50" height="50" relative="1" as="geometry">
                        <mxPoint x="351" y="356" as="sourcePoint"/>
                        <mxPoint x="275" y="422" as="targetPoint"/>
                    </mxGeometry>
                </mxCell>
                <mxCell id="fCIdx-GhJk9Z0k1vzJS6-60" value="" style="endArrow=classic;startArrow=classic;html=1;rounded=0;" parent="1" source="fCIdx-GhJk9Z0k1vzJS6-3" target="fCIdx-GhJk9Z0k1vzJS6-51" edge="1">
                    <mxGeometry width="50" height="50" relative="1" as="geometry">
                        <mxPoint x="361" y="366" as="sourcePoint"/>
                        <mxPoint x="285" y="432" as="targetPoint"/>
                    </mxGeometry>
                </mxCell>
                <mxCell id="fCIdx-GhJk9Z0k1vzJS6-61" value="" style="endArrow=classic;startArrow=classic;html=1;rounded=0;" parent="1" source="fCIdx-GhJk9Z0k1vzJS6-37" target="fCIdx-GhJk9Z0k1vzJS6-55" edge="1">
                    <mxGeometry width="50" height="50" relative="1" as="geometry">
                        <mxPoint x="60" y="530" as="sourcePoint"/>
                        <mxPoint x="110" y="480" as="targetPoint"/>
                    </mxGeometry>
                </mxCell>
                <mxCell id="fCIdx-GhJk9Z0k1vzJS6-62" value="" style="endArrow=classic;startArrow=classic;html=1;rounded=0;" parent="1" source="fCIdx-GhJk9Z0k1vzJS6-37" target="fCIdx-GhJk9Z0k1vzJS6-51" edge="1">
                    <mxGeometry width="50" height="50" relative="1" as="geometry">
                        <mxPoint x="110" y="383" as="sourcePoint"/>
                        <mxPoint x="185" y="346" as="targetPoint"/>
                    </mxGeometry>
                </mxCell>
                <mxCell id="fCIdx-GhJk9Z0k1vzJS6-73" value="Application" style="text;html=1;align=center;verticalAlign=middle;whiteSpace=wrap;rounded=0;fontSize=16;" parent="1" vertex="1">
                    <mxGeometry x="172.5" y="230.38" width="85" height="30" as="geometry"/>
                </mxCell>
                <mxCell id="fCIdx-GhJk9Z0k1vzJS6-74" value="We don't need MySQL. This is an example." style="shape=hexagon;perimeter=hexagonPerimeter2;whiteSpace=wrap;html=1;fixedSize=1;" parent="1" vertex="1">
                    <mxGeometry x="400" y="120" width="120" height="50" as="geometry"/>
                </mxCell>
                <mxCell id="fCIdx-GhJk9Z0k1vzJS6-75" value="" style="endArrow=none;dashed=1;html=1;dashPattern=1 3;strokeWidth=1;rounded=0;" parent="1" source="fCIdx-GhJk9Z0k1vzJS6-19" target="fCIdx-GhJk9Z0k1vzJS6-74" edge="1">
                    <mxGeometry width="50" height="50" relative="1" as="geometry">
                        <mxPoint x="777" y="318" as="sourcePoint"/>
                        <mxPoint x="660" y="140" as="targetPoint"/>
                    </mxGeometry>
                </mxCell>
                <mxCell id="fCIdx-GhJk9Z0k1vzJS6-76" value="" style="endArrow=none;dashed=1;html=1;dashPattern=1 3;strokeWidth=1;rounded=0;" parent="1" source="fCIdx-GhJk9Z0k1vzJS6-1" target="fCIdx-GhJk9Z0k1vzJS6-74" edge="1">
                    <mxGeometry width="50" height="50" relative="1" as="geometry">
                        <mxPoint x="787" y="328" as="sourcePoint"/>
                        <mxPoint x="579" y="150" as="targetPoint"/>
                    </mxGeometry>
                </mxCell>
                <mxCell id="fCIdx-GhJk9Z0k1vzJS6-77" value="" style="endArrow=none;dashed=1;html=1;dashPattern=1 3;strokeWidth=1;rounded=0;" parent="1" source="fCIdx-GhJk9Z0k1vzJS6-27" target="fCIdx-GhJk9Z0k1vzJS6-74" edge="1">
                    <mxGeometry width="50" height="50" relative="1" as="geometry">
                        <mxPoint x="499" y="311" as="sourcePoint"/>
                        <mxPoint x="540" y="210" as="targetPoint"/>
                    </mxGeometry>
                </mxCell>
            </root>
        </mxGraphModel>
    </diagram>
</mxfile>